{
	"patcher" : 	{
		"fileversion" : 1,
		"appversion" : 		{
			"major" : 8,
			"minor" : 5,
			"revision" : 3,
			"architecture" : "x64",
			"modernui" : 1
		}
,
		"classnamespace" : "box",
		"rect" : [ 352.0, 87.0, 429.0, 669.0 ],
		"bglocked" : 0,
		"openinpresentation" : 1,
		"default_fontsize" : 12.0,
		"default_fontface" : 0,
		"default_fontname" : "Arial",
		"gridonopen" : 1,
		"gridsize" : [ 15.0, 15.0 ],
		"gridsnaponopen" : 1,
		"objectsnaponopen" : 1,
		"statusbarvisible" : 2,
		"toolbarvisible" : 1,
		"lefttoolbarpinned" : 0,
		"toptoolbarpinned" : 0,
		"righttoolbarpinned" : 0,
		"bottomtoolbarpinned" : 0,
		"toolbars_unpinned_last_save" : 0,
		"tallnewobj" : 0,
		"boxanimatetime" : 200,
		"enablehscroll" : 1,
		"enablevscroll" : 1,
		"devicewidth" : 0.0,
		"description" : "",
		"digest" : "",
		"tags" : "",
		"style" : "dark_bg",
		"subpatcher_template" : "dark-bg",
		"showontab" : 0,
		"assistshowspatchername" : 0,
		"boxes" : [ 			{
				"box" : 				{
					"id" : "obj-11",
					"maxclass" : "newobj",
					"numinlets" : 1,
					"numoutlets" : 1,
					"outlettype" : [ "" ],
					"patching_rect" : [ 123.5, 169.0, 70.0, 22.0 ],
					"text" : "loadmess 0"
				}

			}
, 			{
				"box" : 				{
					"activebgoncolor" : [ 0.647058823529412, 0.647058823529412, 0.647058823529412, 1.0 ],
					"id" : "obj-9",
					"maxclass" : "live.text",
					"numinlets" : 1,
					"numoutlets" : 2,
					"outlettype" : [ "", "" ],
					"parameter_enable" : 1,
					"patching_rect" : [ 123.5, 193.0, 29.0, 23.0 ],
					"pictures" : [ "tri-down.svg", "tri-up.svg" ],
					"presentation" : 1,
					"presentation_rect" : [ 87.984375, 60.0, 16.015625, 12.0 ],
					"remapsvgcolors" : 1,
					"saved_attribute_attributes" : 					{
						"activebgoncolor" : 						{
							"expression" : "themecolor.live_control_bg"
						}
,
						"valueof" : 						{
							"parameter_enum" : [ "val1", "val2" ],
							"parameter_longname" : "live.text[2]",
							"parameter_mmax" : 1,
							"parameter_shortname" : "live.text",
							"parameter_type" : 2
						}

					}
,
					"usepicture" : 1,
					"varname" : "live.text"
				}

			}
, 			{
				"box" : 				{
					"bgmode" : 0,
					"border" : 0,
					"clickthrough" : 0,
					"embed" : 1,
					"enablehscroll" : 0,
					"enablevscroll" : 0,
					"id" : "obj-34",
					"lockeddragscroll" : 0,
					"lockedsize" : 0,
					"maxclass" : "bpatcher",
					"numinlets" : 2,
					"numoutlets" : 0,
					"offset" : [ 0.0, 0.0 ],
					"patcher" : 					{
						"fileversion" : 1,
						"appversion" : 						{
							"major" : 8,
							"minor" : 5,
							"revision" : 3,
							"architecture" : "x64",
							"modernui" : 1
						}
,
						"classnamespace" : "box",
						"rect" : [ 84.0, 131.0, 640.0, 480.0 ],
						"bglocked" : 0,
						"openinpresentation" : 1,
						"default_fontsize" : 12.0,
						"default_fontface" : 0,
						"default_fontname" : "Arial",
						"gridonopen" : 1,
						"gridsize" : [ 15.0, 15.0 ],
						"gridsnaponopen" : 1,
						"objectsnaponopen" : 1,
						"statusbarvisible" : 2,
						"toolbarvisible" : 1,
						"lefttoolbarpinned" : 0,
						"toptoolbarpinned" : 0,
						"righttoolbarpinned" : 0,
						"bottomtoolbarpinned" : 0,
						"toolbars_unpinned_last_save" : 0,
						"tallnewobj" : 0,
						"boxanimatetime" : 200,
						"enablehscroll" : 1,
						"enablevscroll" : 1,
						"devicewidth" : 0.0,
						"description" : "",
						"digest" : "",
						"tags" : "",
						"style" : "",
						"subpatcher_template" : "dark-bg",
						"assistshowspatchername" : 0,
						"boxes" : [ 							{
								"box" : 								{
									"fontname" : "Ableton Sans Medium",
									"fontsize" : 9.5,
									"id" : "obj-26",
									"maxclass" : "comment",
									"numinlets" : 1,
									"numoutlets" : 0,
									"patching_rect" : [ 89.5, 382.333984375, 49.5, 18.0 ],
									"presentation" : 1,
									"presentation_rect" : [ -11.25, 60.333984375, 36.25, 18.0 ],
									"text" : "dev.",
									"textjustification" : 2
								}

							}
, 							{
								"box" : 								{
									"fontname" : "Ableton Sans Medium",
									"fontsize" : 9.5,
									"id" : "obj-24",
									"maxclass" : "comment",
									"numinlets" : 1,
									"numoutlets" : 0,
									"patching_rect" : [ 63.5, 287.333984375, 49.5, 18.0 ],
									"presentation" : 1,
									"presentation_rect" : [ 57.234375, 1.333984375, 21.5, 18.0 ],
									"text" : "ch"
								}

							}
, 							{
								"box" : 								{
									"fontname" : "Ableton Sans Medium",
									"fontsize" : 9.5,
									"id" : "obj-12",
									"maxclass" : "comment",
									"numinlets" : 1,
									"numoutlets" : 0,
									"patching_rect" : [ 115.0, 206.333984375, 31.0, 18.0 ],
									"presentation" : 1,
									"presentation_rect" : [ -9.25, 36.333984375, 34.25, 18.0 ],
									"text" : "auto",
									"textjustification" : 2
								}

							}
, 							{
								"box" : 								{
									"fontname" : "Ableton Sans Medium",
									"fontsize" : 9.5,
									"id" : "obj-11",
									"linecount" : 3,
									"maxclass" : "comment",
									"numinlets" : 1,
									"numoutlets" : 0,
									"patching_rect" : [ 105.0, 169.833984375, 41.0, 41.0 ],
									"presentation" : 1,
									"presentation_rect" : [ -6.25, 87.833984375, 69.25, 18.0 ],
									"text" : "send note off",
									"textjustification" : 2
								}

							}
, 							{
								"box" : 								{
									"fontname" : "Ableton Sans Medium",
									"fontsize" : 9.5,
									"id" : "obj-9",
									"maxclass" : "comment",
									"numinlets" : 1,
									"numoutlets" : 0,
									"patching_rect" : [ 82.0, 143.833984375, 31.0, 18.0 ],
									"presentation" : 1,
									"presentation_rect" : [ -9.0, 0.833984375, 34.0, 18.0 ],
									"text" : "vel",
									"textjustification" : 2
								}

							}
, 							{
								"box" : 								{
									"fontname" : "Ableton Sans Medium",
									"fontsize" : 9.5,
									"id" : "obj-3",
									"maxclass" : "comment",
									"numinlets" : 1,
									"numoutlets" : 0,
									"patching_rect" : [ 90.0, 107.833984375, 23.0, 18.0 ],
									"presentation" : 1,
									"presentation_rect" : [ -9.25, 17.833984375, 34.25, 18.0 ],
									"text" : "dur",
									"textjustification" : 2
								}

							}
, 							{
								"box" : 								{
									"id" : "obj-5",
									"maxclass" : "newobj",
									"numinlets" : 1,
									"numoutlets" : 2,
									"outlettype" : [ "", "" ],
									"patching_rect" : [ 413.0, 137.16796875, 67.0, 22.0 ],
									"save" : [ "#N", "thispatcher", ";", "#Q", "end", ";" ],
									"text" : "thispatcher"
								}

							}
, 							{
								"box" : 								{
									"id" : "obj-4",
									"maxclass" : "message",
									"numinlets" : 2,
									"numoutlets" : 1,
									"outlettype" : [ "" ],
									"patching_rect" : [ 413.0, 105.16796875, 64.0, 22.0 ],
									"text" : "offset 0 $1"
								}

							}
, 							{
								"box" : 								{
									"id" : "obj-2",
									"maxclass" : "newobj",
									"numinlets" : 2,
									"numoutlets" : 1,
									"outlettype" : [ "int" ],
									"patching_rect" : [ 413.0, 77.333984375, 34.0, 22.0 ],
									"text" : "* -53"
								}

							}
, 							{
								"box" : 								{
									"comment" : "",
									"id" : "obj-1",
									"index" : 2,
									"maxclass" : "inlet",
									"numinlets" : 0,
									"numoutlets" : 1,
									"outlettype" : [ "" ],
									"patching_rect" : [ 413.0, 39.0, 30.0, 30.0 ]
								}

							}
, 							{
								"box" : 								{
									"id" : "obj-32",
									"maxclass" : "newobj",
									"numinlets" : 1,
									"numoutlets" : 1,
									"outlettype" : [ "" ],
									"patching_rect" : [ 314.515625, 435.333984375, 110.0, 22.0 ],
									"text" : "prepend setsymbol"
								}

							}
, 							{
								"box" : 								{
									"color" : [ 0.630609, 0.277737, 0.179169, 1.0 ],
									"id" : "obj-27",
									"maxclass" : "newobj",
									"numinlets" : 2,
									"numoutlets" : 3,
									"outlettype" : [ "", "", "" ],
									"patching_rect" : [ 174.5078125, 411.333984375, 213.0, 22.0 ],
									"text" : "seq.module.remote midiport @levels 2",
									"varname" : "p.remote[8]"
								}

							}
, 							{
								"box" : 								{
									"id" : "obj-25",
									"maxclass" : "newobj",
									"numinlets" : 1,
									"numoutlets" : 1,
									"outlettype" : [ "bang" ],
									"patching_rect" : [ 164.0078125, 324.333984375, 58.0, 22.0 ],
									"text" : "loadbang"
								}

							}
, 							{
								"box" : 								{
									"activebgoncolor" : [ 1.0, 0.709803921568627, 0.196078431372549, 1.0 ],
									"id" : "obj-22",
									"maxclass" : "live.button",
									"numinlets" : 1,
									"numoutlets" : 1,
									"outlettype" : [ "" ],
									"parameter_enable" : 1,
									"patching_rect" : [ 134.5078125, 324.333984375, 15.0, 15.0 ],
									"presentation" : 1,
									"presentation_rect" : [ 84.484375, 62.333984375, 15.0, 15.0 ],
									"saved_attribute_attributes" : 									{
										"activebgoncolor" : 										{
											"expression" : "themecolor.live_control_selection"
										}
,
										"valueof" : 										{
											"parameter_enum" : [ "off", "on" ],
											"parameter_longname" : "live.button[12]",
											"parameter_mmax" : 1,
											"parameter_shortname" : "live.button[1]",
											"parameter_type" : 2
										}

									}
,
									"varname" : "live.button[1]"
								}

							}
, 							{
								"box" : 								{
									"id" : "obj-21",
									"maxclass" : "newobj",
									"numinlets" : 2,
									"numoutlets" : 1,
									"outlettype" : [ "" ],
									"patching_rect" : [ 134.0078125, 353.333984375, 50.0, 22.0 ],
									"text" : "midiinfo"
								}

							}
, 							{
								"box" : 								{
									"arrow" : 0,
									"bgcolor" : [ 0.764705882352941, 0.764705882352941, 0.764705882352941, 1.0 ],
									"bgfillcolor_angle" : 270.0,
									"bgfillcolor_color" : [ 0.764705882352941, 0.764705882352941, 0.764705882352941, 1.0 ],
									"bgfillcolor_color1" : [ 0.376470588235294, 0.384313725490196, 0.4, 1.0 ],
									"bgfillcolor_color2" : [ 0.290196078431373, 0.309803921568627, 0.301960784313725, 1.0 ],
									"bgfillcolor_proportion" : 0.39,
									"bgfillcolor_type" : "color",
									"fontname" : "Ableton Sans Medium",
									"fontsize" : 9.5,
									"id" : "obj-20",
									"items" : [ "AU DLS Synth 1", ",", "from Max 1", ",", "from Max 2" ],
									"maxclass" : "umenu",
									"numinlets" : 1,
									"numoutlets" : 3,
									"outlettype" : [ "int", "", "" ],
									"parameter_enable" : 0,
									"patching_rect" : [ 134.0078125, 382.333984375, 100.0, 20.0 ],
									"presentation" : 1,
									"presentation_rect" : [ 22.984375, 60.333984375, 59.0, 20.0 ],
									"saved_attribute_attributes" : 									{
										"bgfillcolor" : 										{
											"expression" : "themecolor.live_control_text_bg"
										}
,
										"textcolor" : 										{
											"expression" : "themecolor.live_control_fg"
										}

									}
,
									"textcolor" : [ 0.0, 0.0, 0.0, 1.0 ]
								}

							}
, 							{
								"box" : 								{
									"color" : [ 0.630609, 0.277737, 0.179169, 1.0 ],
									"id" : "obj-18",
									"maxclass" : "newobj",
									"numinlets" : 2,
									"numoutlets" : 3,
									"outlettype" : [ "", "", "" ],
									"patching_rect" : [ 164.0078125, 169.833984375, 241.0, 22.0 ],
									"text" : "seq.module.remote send-note-off @levels 2",
									"varname" : "p.remote[7]"
								}

							}
, 							{
								"box" : 								{
									"id" : "obj-19",
									"maxclass" : "live.toggle",
									"numinlets" : 1,
									"numoutlets" : 1,
									"outlettype" : [ "" ],
									"parameter_enable" : 1,
									"patching_rect" : [ 147.0078125, 173.333984375, 15.0, 15.0 ],
									"presentation" : 1,
									"presentation_rect" : [ 66.984375, 89.333984375, 15.0, 15.0 ],
									"saved_attribute_attributes" : 									{
										"valueof" : 										{
											"parameter_enum" : [ "off", "on" ],
											"parameter_longname" : "live.toggle[3]",
											"parameter_mmax" : 1,
											"parameter_shortname" : "live.toggle",
											"parameter_type" : 2
										}

									}
,
									"varname" : "live.toggle[1]"
								}

							}
, 							{
								"box" : 								{
									"id" : "obj-16",
									"maxclass" : "live.numbox",
									"numinlets" : 1,
									"numoutlets" : 2,
									"outlettype" : [ "", "float" ],
									"parameter_enable" : 1,
									"patching_rect" : [ 121.0, 107.833984375, 44.0, 15.0 ],
									"presentation" : 1,
									"presentation_rect" : [ 22.984375, 19.333984375, 76.0, 15.0 ],
									"saved_attribute_attributes" : 									{
										"valueof" : 										{
											"parameter_longname" : "live.numbox[10]",
											"parameter_mmax" : 10000.0,
											"parameter_mmin" : 1.0,
											"parameter_shortname" : "live.numbox[2]",
											"parameter_type" : 0,
											"parameter_unitstyle" : 2
										}

									}
,
									"varname" : "live.numbox[3]"
								}

							}
, 							{
								"box" : 								{
									"color" : [ 0.630609, 0.277737, 0.179169, 1.0 ],
									"id" : "obj-17",
									"maxclass" : "newobj",
									"numinlets" : 2,
									"numoutlets" : 3,
									"outlettype" : [ "", "", "" ],
									"patching_rect" : [ 170.0078125, 104.333984375, 214.0, 22.0 ],
									"text" : "seq.module.remote duration @levels 2",
									"varname" : "p.remote[6]"
								}

							}
, 							{
								"box" : 								{
									"id" : "obj-14",
									"maxclass" : "live.numbox",
									"numinlets" : 1,
									"numoutlets" : 2,
									"outlettype" : [ "", "float" ],
									"parameter_enable" : 1,
									"patching_rect" : [ 115.0, 287.333984375, 44.0, 15.0 ],
									"presentation" : 1,
									"presentation_rect" : [ 74.984375, 1.333984375, 24.0, 15.0 ],
									"saved_attribute_attributes" : 									{
										"valueof" : 										{
											"parameter_longname" : "live.numbox[9]",
											"parameter_mmax" : 16.0,
											"parameter_mmin" : 1.0,
											"parameter_shortname" : "live.numbox[2]",
											"parameter_type" : 1,
											"parameter_unitstyle" : 0
										}

									}
,
									"varname" : "live.numbox[2]"
								}

							}
, 							{
								"box" : 								{
									"color" : [ 0.630609, 0.277737, 0.179169, 1.0 ],
									"id" : "obj-15",
									"maxclass" : "newobj",
									"numinlets" : 2,
									"numoutlets" : 3,
									"outlettype" : [ "", "", "" ],
									"patching_rect" : [ 164.0078125, 283.833984375, 213.0, 22.0 ],
									"text" : "seq.module.remote channel @levels 2",
									"varname" : "p.remote[5]"
								}

							}
, 							{
								"box" : 								{
									"color" : [ 0.630609, 0.277737, 0.179169, 1.0 ],
									"id" : "obj-13",
									"maxclass" : "newobj",
									"numinlets" : 2,
									"numoutlets" : 3,
									"outlettype" : [ "", "", "" ],
									"patching_rect" : [ 164.0078125, 202.833984375, 194.0, 22.0 ],
									"text" : "seq.module.remote auto @levels 2",
									"varname" : "p.remote[4]"
								}

							}
, 							{
								"box" : 								{
									"id" : "obj-8",
									"maxclass" : "live.toggle",
									"numinlets" : 1,
									"numoutlets" : 1,
									"outlettype" : [ "" ],
									"parameter_enable" : 1,
									"patching_rect" : [ 147.0078125, 206.333984375, 15.0, 15.0 ],
									"presentation" : 1,
									"presentation_rect" : [ 22.984375, 36.333984375, 15.0, 15.0 ],
									"saved_attribute_attributes" : 									{
										"valueof" : 										{
											"parameter_enum" : [ "off", "on" ],
											"parameter_longname" : "live.toggle[2]",
											"parameter_mmax" : 1,
											"parameter_shortname" : "live.toggle",
											"parameter_type" : 2
										}

									}
,
									"varname" : "live.toggle"
								}

							}
, 							{
								"box" : 								{
									"id" : "obj-6",
									"maxclass" : "live.numbox",
									"numinlets" : 1,
									"numoutlets" : 2,
									"outlettype" : [ "", "float" ],
									"parameter_enable" : 1,
									"patching_rect" : [ 115.0, 240.833984375, 44.0, 15.0 ],
									"presentation" : 1,
									"presentation_rect" : [ 37.484375, 36.333984375, 43.0, 15.0 ],
									"saved_attribute_attributes" : 									{
										"valueof" : 										{
											"parameter_longname" : "live.numbox[11]",
											"parameter_mmax" : 2500.0,
											"parameter_mmin" : 5.0,
											"parameter_shortname" : "live.numbox[2]",
											"parameter_type" : 0,
											"parameter_unitstyle" : 2
										}

									}
,
									"varname" : "live.numbox[1]"
								}

							}
, 							{
								"box" : 								{
									"color" : [ 0.630609, 0.277737, 0.179169, 1.0 ],
									"id" : "obj-7",
									"maxclass" : "newobj",
									"numinlets" : 2,
									"numoutlets" : 3,
									"outlettype" : [ "", "", "" ],
									"patching_rect" : [ 164.0078125, 237.333984375, 233.0, 22.0 ],
									"text" : "seq.module.remote autointerval @levels 2",
									"varname" : "p.remote[3]"
								}

							}
, 							{
								"box" : 								{
									"id" : "obj-10",
									"maxclass" : "live.numbox",
									"numinlets" : 1,
									"numoutlets" : 2,
									"outlettype" : [ "", "float" ],
									"parameter_enable" : 1,
									"patching_rect" : [ 121.0, 139.833984375, 44.0, 15.0 ],
									"presentation" : 1,
									"presentation_rect" : [ 22.984375, 2.333984375, 31.0, 15.0 ],
									"saved_attribute_attributes" : 									{
										"valueof" : 										{
											"parameter_longname" : "live.numbox[8]",
											"parameter_shortname" : "live.numbox[2]",
											"parameter_type" : 1,
											"parameter_unitstyle" : 0
										}

									}
,
									"varname" : "live.numbox"
								}

							}
, 							{
								"box" : 								{
									"color" : [ 0.630609, 0.277737, 0.179169, 1.0 ],
									"id" : "obj-36",
									"maxclass" : "newobj",
									"numinlets" : 2,
									"numoutlets" : 3,
									"outlettype" : [ "", "", "" ],
									"patching_rect" : [ 170.0078125, 136.333984375, 211.0, 22.0 ],
									"text" : "seq.module.remote velocity @levels 2",
									"varname" : "p.remote[1]"
								}

							}
, 							{
								"box" : 								{
									"comment" : "",
									"id" : "obj-33",
									"index" : 1,
									"maxclass" : "inlet",
									"numinlets" : 0,
									"numoutlets" : 1,
									"outlettype" : [ "" ],
									"patching_rect" : [ 161.222099000000014, 39.000000374999999, 30.0, 30.0 ]
								}

							}
 ],
						"lines" : [ 							{
								"patchline" : 								{
									"destination" : [ "obj-2", 0 ],
									"source" : [ "obj-1", 0 ]
								}

							}
, 							{
								"patchline" : 								{
									"destination" : [ "obj-36", 0 ],
									"source" : [ "obj-10", 0 ]
								}

							}
, 							{
								"patchline" : 								{
									"destination" : [ "obj-8", 0 ],
									"source" : [ "obj-13", 0 ]
								}

							}
, 							{
								"patchline" : 								{
									"destination" : [ "obj-15", 0 ],
									"source" : [ "obj-14", 0 ]
								}

							}
, 							{
								"patchline" : 								{
									"destination" : [ "obj-14", 0 ],
									"source" : [ "obj-15", 0 ]
								}

							}
, 							{
								"patchline" : 								{
									"destination" : [ "obj-17", 0 ],
									"source" : [ "obj-16", 0 ]
								}

							}
, 							{
								"patchline" : 								{
									"destination" : [ "obj-16", 0 ],
									"source" : [ "obj-17", 0 ]
								}

							}
, 							{
								"patchline" : 								{
									"destination" : [ "obj-19", 0 ],
									"source" : [ "obj-18", 0 ]
								}

							}
, 							{
								"patchline" : 								{
									"destination" : [ "obj-18", 0 ],
									"source" : [ "obj-19", 0 ]
								}

							}
, 							{
								"patchline" : 								{
									"destination" : [ "obj-4", 0 ],
									"source" : [ "obj-2", 0 ]
								}

							}
, 							{
								"patchline" : 								{
									"destination" : [ "obj-27", 0 ],
									"source" : [ "obj-20", 1 ]
								}

							}
, 							{
								"patchline" : 								{
									"destination" : [ "obj-20", 0 ],
									"source" : [ "obj-21", 0 ]
								}

							}
, 							{
								"patchline" : 								{
									"destination" : [ "obj-21", 0 ],
									"source" : [ "obj-22", 0 ]
								}

							}
, 							{
								"patchline" : 								{
									"destination" : [ "obj-21", 0 ],
									"source" : [ "obj-25", 0 ]
								}

							}
, 							{
								"patchline" : 								{
									"destination" : [ "obj-32", 0 ],
									"source" : [ "obj-27", 1 ]
								}

							}
, 							{
								"patchline" : 								{
									"destination" : [ "obj-20", 0 ],
									"source" : [ "obj-32", 0 ]
								}

							}
, 							{
								"patchline" : 								{
									"destination" : [ "obj-13", 0 ],
									"order" : 5,
									"source" : [ "obj-33", 0 ]
								}

							}
, 							{
								"patchline" : 								{
									"destination" : [ "obj-15", 0 ],
									"order" : 3,
									"source" : [ "obj-33", 0 ]
								}

							}
, 							{
								"patchline" : 								{
									"destination" : [ "obj-17", 0 ],
									"order" : 2,
									"source" : [ "obj-33", 0 ]
								}

							}
, 							{
								"patchline" : 								{
									"destination" : [ "obj-18", 0 ],
									"order" : 6,
									"source" : [ "obj-33", 0 ]
								}

							}
, 							{
								"patchline" : 								{
									"destination" : [ "obj-27", 0 ],
									"order" : 0,
									"source" : [ "obj-33", 0 ]
								}

							}
, 							{
								"patchline" : 								{
									"destination" : [ "obj-36", 0 ],
									"order" : 1,
									"source" : [ "obj-33", 0 ]
								}

							}
, 							{
								"patchline" : 								{
									"destination" : [ "obj-7", 0 ],
									"order" : 4,
									"source" : [ "obj-33", 0 ]
								}

							}
, 							{
								"patchline" : 								{
									"destination" : [ "obj-10", 0 ],
									"source" : [ "obj-36", 0 ]
								}

							}
, 							{
								"patchline" : 								{
									"destination" : [ "obj-5", 0 ],
									"source" : [ "obj-4", 0 ]
								}

							}
, 							{
								"patchline" : 								{
									"destination" : [ "obj-7", 0 ],
									"source" : [ "obj-6", 0 ]
								}

							}
, 							{
								"patchline" : 								{
									"destination" : [ "obj-6", 0 ],
									"source" : [ "obj-7", 0 ]
								}

							}
, 							{
								"patchline" : 								{
									"destination" : [ "obj-13", 0 ],
									"source" : [ "obj-8", 0 ]
								}

							}
 ]
					}
,
					"patching_rect" : [ 8.5, 221.666016000000013, 134.0, 53.0 ],
					"presentation" : 1,
					"presentation_rect" : [ 4.0, 22.0, 106.5, 53.0 ],
					"viewvisibility" : 1
				}

			}
, 			{
				"box" : 				{
					"activebgoncolor" : [ 0.83921568627451, 0.423529411764706, 0.023529411764706, 1.0 ],
					"id" : "obj-2",
					"maxclass" : "live.button",
					"numinlets" : 1,
					"numoutlets" : 1,
					"outlettype" : [ "" ],
					"parameter_enable" : 1,
					"patching_rect" : [ 216.5, 54.0, 15.0, 15.0 ],
					"presentation" : 1,
					"presentation_rect" : [ 93.0, 3.5, 15.0, 15.0 ],
					"saved_attribute_attributes" : 					{
						"activebgoncolor" : 						{
							"expression" : ""
						}
,
						"valueof" : 						{
							"parameter_enum" : [ "off", "on" ],
							"parameter_longname" : "live.button[13]",
							"parameter_mmax" : 1,
							"parameter_shortname" : "live.button",
							"parameter_type" : 2
						}

					}
,
					"varname" : "live.button"
				}

			}
, 			{
				"box" : 				{
					"color" : [ 0.83921568627451, 0.423529411764706, 0.023529411764706, 1.0 ],
					"id" : "obj-60",
					"maxclass" : "newobj",
					"numinlets" : 2,
					"numoutlets" : 4,
					"outlettype" : [ "", "clear", "", "" ],
					"patching_rect" : [ 8.5, 54.0, 134.0, 22.0 ],
					"text" : "seq.module.viewcontrol"
				}

			}
, 			{
				"box" : 				{
					"comment" : "",
					"id" : "obj-1",
					"index" : 1,
					"maxclass" : "inlet",
					"numinlets" : 0,
					"numoutlets" : 1,
					"outlettype" : [ "" ],
					"patching_rect" : [ 8.5, 4.0, 30.0, 30.0 ]
				}

			}
, 			{
				"box" : 				{
					"comment" : "",
					"id" : "obj-43",
					"index" : 1,
					"maxclass" : "outlet",
					"numinlets" : 1,
					"numoutlets" : 0,
					"patching_rect" : [ 123.5, 89.0, 30.0, 30.0 ]
				}

			}
, 			{
				"box" : 				{
					"fontsize" : 10.0,
					"id" : "obj-5",
					"linecount" : 3,
					"maxclass" : "comment",
					"numinlets" : 1,
					"numoutlets" : 0,
					"patching_rect" : [ 85.166666666666686, 82.5, 36.0, 40.0 ],
					"presentation" : 1,
					"presentation_rect" : [ 1.0, 2.0, 90.0, 18.0 ],
					"text" : "makenote-help",
					"textcolor" : [ 0.0, 0.0, 0.0, 1.0 ]
				}

			}
, 			{
				"box" : 				{
					"angle" : 270.0,
					"bgcolor" : [ 1.0, 1.0, 1.0, 1.0 ],
					"bordercolor" : [ 1.0, 1.0, 1.0, 0.0 ],
					"id" : "obj-3",
					"maxclass" : "panel",
					"mode" : 0,
					"numinlets" : 1,
					"numoutlets" : 0,
					"patching_rect" : [ 57.5, 139.0, 79.0, 19.0 ],
					"presentation" : 1,
					"presentation_rect" : [ 1.0, 1.0, 109.5, 19.0 ],
					"proportion" : 0.5
				}

			}
, 			{
				"box" : 				{
					"angle" : 270.0,
					"bgcolor" : [ 0.847058823529412, 0.847058823529412, 0.847058823529412, 1.0 ],
					"bordercolor" : [ 1.0, 1.0, 1.0, 0.0 ],
					"id" : "obj-4",
					"maxclass" : "panel",
					"mode" : 0,
					"numinlets" : 1,
					"numoutlets" : 0,
					"patching_rect" : [ 57.5, 139.0, 79.0, 19.0 ],
					"presentation" : 1,
					"presentation_rect" : [ 1.0, 1.0, 109.5, 77.0 ],
					"proportion" : 0.5
				}

			}
 ],
		"lines" : [ 			{
				"patchline" : 				{
					"destination" : [ "obj-60", 0 ],
					"source" : [ "obj-1", 0 ]
				}

			}
, 			{
				"patchline" : 				{
					"destination" : [ "obj-9", 0 ],
					"source" : [ "obj-11", 0 ]
				}

			}
, 			{
				"patchline" : 				{
					"destination" : [ "obj-43", 0 ],
					"source" : [ "obj-2", 0 ]
				}

			}
, 			{
				"patchline" : 				{
					"destination" : [ "obj-34", 0 ],
					"source" : [ "obj-60", 0 ]
				}

			}
, 			{
				"patchline" : 				{
					"destination" : [ "obj-43", 0 ],
					"source" : [ "obj-60", 3 ]
				}

			}
, 			{
				"patchline" : 				{
					"destination" : [ "obj-5", 0 ],
					"source" : [ "obj-60", 2 ]
				}

			}
, 			{
				"patchline" : 				{
					"destination" : [ "obj-34", 1 ],
					"source" : [ "obj-9", 0 ]
				}

			}
 ],
		"styles" : [ 			{
				"name" : "dark_bg",
				"default" : 				{
					"clearcolor" : [ 1.0, 1.0, 1.0, 0.0 ],
					"textcolor" : [ 1.0, 1.0, 1.0, 1.0 ]
				}
,
				"parentstyle" : "",
				"multi" : 0
			}
 ],
		"bgcolor" : [ 0.356862745098039, 0.356862745098039, 0.356862745098039, 1.0 ],
		"editing_bgcolor" : [ 0.356862745098039, 0.356862745098039, 0.356862745098039, 1.0 ]
	}

}
