{
	"patcher" : 	{
		"fileversion" : 1,
		"appversion" : 		{
			"major" : 8,
			"minor" : 5,
			"revision" : 3,
			"architecture" : "x64",
			"modernui" : 1
		}
,
		"classnamespace" : "box",
		"rect" : [ 34.0, 87.0, 800.0, 593.0 ],
		"bglocked" : 0,
		"openinpresentation" : 0,
		"default_fontsize" : 12.0,
		"default_fontface" : 0,
		"default_fontname" : "Arial",
		"gridonopen" : 1,
		"gridsize" : [ 15.0, 15.0 ],
		"gridsnaponopen" : 1,
		"objectsnaponopen" : 1,
		"statusbarvisible" : 2,
		"toolbarvisible" : 1,
		"lefttoolbarpinned" : 0,
		"toptoolbarpinned" : 0,
		"righttoolbarpinned" : 0,
		"bottomtoolbarpinned" : 0,
		"toolbars_unpinned_last_save" : 0,
		"tallnewobj" : 0,
		"boxanimatetime" : 200,
		"enablehscroll" : 1,
		"enablevscroll" : 1,
		"devicewidth" : 0.0,
		"description" : "",
		"digest" : "",
		"tags" : "",
		"style" : "",
		"subpatcher_template" : "",
		"showrootpatcherontab" : 0,
		"showontab" : 0,
		"assistshowspatchername" : 0,
		"boxes" : [ 			{
				"box" : 				{
					"id" : "obj-2",
					"maxclass" : "newobj",
					"numinlets" : 0,
					"numoutlets" : 0,
					"patcher" : 					{
						"fileversion" : 1,
						"appversion" : 						{
							"major" : 8,
							"minor" : 5,
							"revision" : 3,
							"architecture" : "x64",
							"modernui" : 1
						}
,
						"classnamespace" : "box",
						"rect" : [ 34.0, 113.0, 800.0, 567.0 ],
						"bglocked" : 0,
						"openinpresentation" : 0,
						"default_fontsize" : 12.0,
						"default_fontface" : 0,
						"default_fontname" : "Arial",
						"gridonopen" : 1,
						"gridsize" : [ 15.0, 15.0 ],
						"gridsnaponopen" : 1,
						"objectsnaponopen" : 1,
						"statusbarvisible" : 2,
						"toolbarvisible" : 1,
						"lefttoolbarpinned" : 0,
						"toptoolbarpinned" : 0,
						"righttoolbarpinned" : 0,
						"bottomtoolbarpinned" : 0,
						"toolbars_unpinned_last_save" : 0,
						"tallnewobj" : 0,
						"boxanimatetime" : 200,
						"enablehscroll" : 1,
						"enablevscroll" : 1,
						"devicewidth" : 0.0,
						"description" : "",
						"digest" : "",
						"tags" : "",
						"style" : "",
						"subpatcher_template" : "",
						"showontab" : 1,
						"assistshowspatchername" : 0,
						"boxes" : [ 							{
								"box" : 								{
									"id" : "obj-3",
									"linecount" : 2,
									"maxclass" : "message",
									"numinlets" : 2,
									"numoutlets" : 1,
									"outlettype" : [ "" ],
									"patching_rect" : [ 127.0, 402.0, 182.0, 35.0 ],
									"text" : "0.506 0.948 1. 1. 0.87 0.415 0.051 0."
								}

							}
, 							{
								"box" : 								{
									"bubble" : 1,
									"id" : "obj-11",
									"maxclass" : "comment",
									"numinlets" : 1,
									"numoutlets" : 0,
									"patching_rect" : [ 270.0, 286.0, 165.0, 24.0 ],
									"text" : "seq.sequence.ui.maxpat"
								}

							}
, 							{
								"box" : 								{
									"fontname" : "Arial",
									"fontsize" : 12.0,
									"id" : "obj-2",
									"maxclass" : "comment",
									"numinlets" : 1,
									"numoutlets" : 0,
									"patching_rect" : [ 10.0, 69.599853515625, 505.0, 20.0 ],
									"text" : "The seq.sequence~ snippet provides a handy UI for the object."
								}

							}
, 							{
								"box" : 								{
									"border" : 0,
									"filename" : "helpname.js",
									"id" : "obj-4",
									"ignoreclick" : 1,
									"jsarguments" : [ "seq.sequence~" ],
									"maxclass" : "jsui",
									"numinlets" : 1,
									"numoutlets" : 1,
									"outlettype" : [ "" ],
									"parameter_enable" : 0,
									"patching_rect" : [ 10.0, 10.0, 316.903961181640625, 57.599853515625 ]
								}

							}
, 							{
								"box" : 								{
									"bgmode" : 0,
									"border" : 0,
									"clickthrough" : 0,
									"enablehscroll" : 0,
									"enablevscroll" : 0,
									"id" : "obj-156",
									"lockeddragscroll" : 0,
									"lockedsize" : 0,
									"maxclass" : "bpatcher",
									"name" : "seq.sequence.ui.maxpat",
									"numinlets" : 1,
									"numoutlets" : 2,
									"offset" : [ 0.0, 0.0 ],
									"outlettype" : [ "", "" ],
									"patching_rect" : [ 42.0, 259.0, 226.0, 78.0 ],
									"presentation" : 1,
									"presentation_rect" : [ 612.0, 832.0, 226.0, 80.0 ],
									"varname" : "sequence",
									"viewvisibility" : 1
								}

							}
, 							{
								"box" : 								{
									"color" : [ 0.792156862745098, 0.792156862745098, 0.031372549019608, 1.0 ],
									"id" : "obj-66",
									"maxclass" : "newobj",
									"numinlets" : 2,
									"numoutlets" : 2,
									"outlettype" : [ "signal", "" ],
									"patching_rect" : [ 22.0, 344.833329718978916, 246.0, 22.0 ],
									"saved_object_attributes" : 									{
										"parameter_enable" : 0,
										"parameter_mappable" : 0
									}
,
									"text" : "seq.sequence~"
								}

							}
, 							{
								"box" : 								{
									"id" : "obj-10",
									"maxclass" : "toggle",
									"numinlets" : 1,
									"numoutlets" : 1,
									"outlettype" : [ "int" ],
									"parameter_enable" : 0,
									"patching_rect" : [ 22.0, 115.0, 24.0, 24.0 ]
								}

							}
, 							{
								"box" : 								{
									"fontface" : 0,
									"fontname" : "Arial",
									"fontsize" : 12.0,
									"id" : "obj-51",
									"maxclass" : "number~",
									"mode" : 2,
									"numinlets" : 2,
									"numoutlets" : 2,
									"outlettype" : [ "signal", "float" ],
									"patching_rect" : [ 35.0, 203.5, 56.0, 22.0 ],
									"sig" : 0.0
								}

							}
, 							{
								"box" : 								{
									"id" : "obj-46",
									"maxclass" : "newobj",
									"numinlets" : 1,
									"numoutlets" : 5,
									"outlettype" : [ "signal", "signal", "signal", "signal", "signal" ],
									"patching_rect" : [ 22.0, 179.0, 187.0, 22.0 ],
									"saved_object_attributes" : 									{
										"parameter_enable" : 0,
										"parameter_mappable" : 0
									}
,
									"text" : "seq.loop~ @steps 12"
								}

							}
, 							{
								"box" : 								{
									"id" : "obj-44",
									"maxclass" : "newobj",
									"numinlets" : 1,
									"numoutlets" : 4,
									"outlettype" : [ "signal", "signal", "signal", "" ],
									"patching_rect" : [ 22.0, 144.5, 56.0, 22.0 ],
									"saved_object_attributes" : 									{
										"parameter_enable" : 0,
										"parameter_mappable" : 0
									}
,
									"text" : "seq.bar~"
								}

							}
, 							{
								"box" : 								{
									"fontface" : 0,
									"fontname" : "Arial",
									"fontsize" : 12.0,
									"id" : "obj-16",
									"maxclass" : "number~",
									"mode" : 2,
									"numinlets" : 2,
									"numoutlets" : 2,
									"outlettype" : [ "signal", "float" ],
									"patching_rect" : [ 22.0, 399.0, 56.0, 22.0 ],
									"sig" : 0.0
								}

							}
 ],
						"lines" : [ 							{
								"patchline" : 								{
									"destination" : [ "obj-44", 0 ],
									"source" : [ "obj-10", 0 ]
								}

							}
, 							{
								"patchline" : 								{
									"destination" : [ "obj-66", 1 ],
									"source" : [ "obj-156", 1 ]
								}

							}
, 							{
								"patchline" : 								{
									"destination" : [ "obj-66", 0 ],
									"source" : [ "obj-156", 0 ]
								}

							}
, 							{
								"patchline" : 								{
									"destination" : [ "obj-46", 0 ],
									"source" : [ "obj-44", 0 ]
								}

							}
, 							{
								"patchline" : 								{
									"destination" : [ "obj-51", 0 ],
									"order" : 0,
									"source" : [ "obj-46", 0 ]
								}

							}
, 							{
								"patchline" : 								{
									"destination" : [ "obj-66", 0 ],
									"order" : 1,
									"source" : [ "obj-46", 0 ]
								}

							}
, 							{
								"patchline" : 								{
									"destination" : [ "obj-16", 0 ],
									"source" : [ "obj-66", 0 ]
								}

							}
, 							{
								"patchline" : 								{
									"destination" : [ "obj-3", 1 ],
									"source" : [ "obj-66", 1 ]
								}

							}
 ]
					}
,
					"patching_rect" : [ 89.0, 205.0, 57.0, 22.0 ],
					"saved_object_attributes" : 					{
						"description" : "",
						"digest" : "",
						"globalpatchername" : "",
						"tags" : ""
					}
,
					"text" : "p snippet",
					"varname" : "basic[1]"
				}

			}
, 			{
				"box" : 				{
					"id" : "obj-6",
					"maxclass" : "newobj",
					"numinlets" : 0,
					"numoutlets" : 0,
					"patcher" : 					{
						"fileversion" : 1,
						"appversion" : 						{
							"major" : 8,
							"minor" : 5,
							"revision" : 3,
							"architecture" : "x64",
							"modernui" : 1
						}
,
						"classnamespace" : "box",
						"rect" : [ 0.0, 26.0, 800.0, 567.0 ],
						"bglocked" : 0,
						"openinpresentation" : 0,
						"default_fontsize" : 12.0,
						"default_fontface" : 0,
						"default_fontname" : "Arial",
						"gridonopen" : 1,
						"gridsize" : [ 15.0, 15.0 ],
						"gridsnaponopen" : 1,
						"objectsnaponopen" : 1,
						"statusbarvisible" : 2,
						"toolbarvisible" : 1,
						"lefttoolbarpinned" : 0,
						"toptoolbarpinned" : 0,
						"righttoolbarpinned" : 0,
						"bottomtoolbarpinned" : 0,
						"toolbars_unpinned_last_save" : 0,
						"tallnewobj" : 0,
						"boxanimatetime" : 200,
						"enablehscroll" : 1,
						"enablevscroll" : 1,
						"devicewidth" : 0.0,
						"description" : "",
						"digest" : "",
						"tags" : "",
						"style" : "",
						"subpatcher_template" : "",
						"showontab" : 1,
						"assistshowspatchername" : 0,
						"boxes" : [ 							{
								"box" : 								{
									"id" : "obj-20",
									"maxclass" : "message",
									"numinlets" : 2,
									"numoutlets" : 1,
									"outlettype" : [ "" ],
									"patching_rect" : [ 39.0, 414.0, 77.0, 22.0 ],
									"text" : "clientwindow"
								}

							}
, 							{
								"box" : 								{
									"bubble" : 1,
									"fontname" : "Arial",
									"fontsize" : 12.0,
									"id" : "obj-21",
									"linecount" : 4,
									"maxclass" : "comment",
									"numinlets" : 1,
									"numoutlets" : 0,
									"patching_rect" : [ 302.0, 421.0, 222.0, 64.0 ],
									"text" : "use pattrstorage with @greedy 1 to create \"cues\" that save parameters across multiple seq objects in a max patch"
								}

							}
, 							{
								"box" : 								{
									"id" : "obj-22",
									"maxclass" : "newobj",
									"numinlets" : 1,
									"numoutlets" : 1,
									"outlettype" : [ "" ],
									"patching_rect" : [ 39.0, 442.0, 261.0, 22.0 ],
									"priority" : 									{
										"sequence-help::m::seq-length" : -1,
										"sequence-help-2::m::seq-length" : -1
									}
,
									"saved_object_attributes" : 									{
										"client_rect" : [ 809, 112, 1355, 911 ],
										"parameter_enable" : 0,
										"parameter_mappable" : 0,
										"storage_rect" : [ 583, 87, 1081, 651 ]
									}
,
									"text" : "pattrstorage sequence-help-storage @greedy 1",
									"varname" : "sequence-help-storage"
								}

							}
, 							{
								"box" : 								{
									"id" : "obj-6",
									"maxclass" : "newobj",
									"numinlets" : 1,
									"numoutlets" : 5,
									"outlettype" : [ "signal", "signal", "signal", "signal", "signal" ],
									"patching_rect" : [ 39.0, 163.0, 61.0, 22.0 ],
									"saved_object_attributes" : 									{
										"parameter_enable" : 0,
										"parameter_mappable" : 0
									}
,
									"text" : "seq.loop~",
									"varname" : "loop_37921"
								}

							}
, 							{
								"box" : 								{
									"fontface" : 0,
									"fontname" : "Arial",
									"fontsize" : 12.0,
									"id" : "obj-19",
									"maxclass" : "number~",
									"mode" : 2,
									"numinlets" : 2,
									"numoutlets" : 2,
									"outlettype" : [ "signal", "float" ],
									"patching_rect" : [ 39.0, 303.0, 56.0, 22.0 ],
									"sig" : 0.0
								}

							}
, 							{
								"box" : 								{
									"id" : "obj-15",
									"maxclass" : "toggle",
									"numinlets" : 1,
									"numoutlets" : 1,
									"outlettype" : [ "int" ],
									"parameter_enable" : 0,
									"patching_rect" : [ 39.0, 107.282608695652243, 24.0, 24.0 ]
								}

							}
, 							{
								"box" : 								{
									"id" : "obj-9",
									"maxclass" : "newobj",
									"numinlets" : 1,
									"numoutlets" : 4,
									"outlettype" : [ "signal", "signal", "signal", "" ],
									"patching_rect" : [ 39.0, 134.0, 56.0, 22.0 ],
									"saved_object_attributes" : 									{
										"parameter_enable" : 0,
										"parameter_mappable" : 0
									}
,
									"text" : "seq.bar~"
								}

							}
, 							{
								"box" : 								{
									"bubble" : 1,
									"bubbleside" : 2,
									"fontname" : "Arial",
									"fontsize" : 12.0,
									"id" : "obj-18",
									"maxclass" : "comment",
									"numinlets" : 1,
									"numoutlets" : 0,
									"patching_rect" : [ 485.5, 103.282608695652243, 201.0, 39.0 ],
									"text" : "invisible pattr for remote control"
								}

							}
, 							{
								"box" : 								{
									"bubble" : 1,
									"fontname" : "Arial",
									"fontsize" : 12.0,
									"id" : "obj-17",
									"linecount" : 3,
									"maxclass" : "comment",
									"numinlets" : 1,
									"numoutlets" : 0,
									"patching_rect" : [ 502.5, 244.5, 153.0, 51.0 ],
									"text" : "you can also set parameters using the module's first inlet"
								}

							}
, 							{
								"box" : 								{
									"id" : "obj-16",
									"maxclass" : "message",
									"numinlets" : 2,
									"numoutlets" : 1,
									"outlettype" : [ "" ],
									"patching_rect" : [ 430.0, 175.782608695652243, 41.0, 22.0 ],
									"text" : "set $1"
								}

							}
, 							{
								"box" : 								{
									"id" : "obj-14",
									"maxclass" : "number",
									"numinlets" : 1,
									"numoutlets" : 2,
									"outlettype" : [ "", "bang" ],
									"parameter_enable" : 0,
									"patching_rect" : [ 430.0, 124.282608695652243, 51.0, 22.0 ]
								}

							}
, 							{
								"box" : 								{
									"id" : "obj-12",
									"maxclass" : "number",
									"numinlets" : 1,
									"numoutlets" : 2,
									"outlettype" : [ "", "bang" ],
									"parameter_enable" : 0,
									"patching_rect" : [ 430.0, 259.0, 51.0, 22.0 ]
								}

							}
, 							{
								"box" : 								{
									"id" : "obj-10",
									"maxclass" : "message",
									"numinlets" : 2,
									"numoutlets" : 1,
									"outlettype" : [ "" ],
									"patching_rect" : [ 430.0, 286.0, 81.0, 22.0 ],
									"text" : "seq-length $1"
								}

							}
, 							{
								"box" : 								{
									"bubble" : 1,
									"bubblepoint" : 0.1,
									"bubbleside" : 2,
									"fontname" : "Arial",
									"fontsize" : 12.0,
									"id" : "obj-8",
									"linecount" : 3,
									"maxclass" : "comment",
									"numinlets" : 1,
									"numoutlets" : 0,
									"patching_rect" : [ 235.0, 124.282608695652243, 139.0, 66.0 ],
									"text" : "use this menu to create pattr objects to control params remotely"
								}

							}
, 							{
								"box" : 								{
									"bubble" : 1,
									"bubblepoint" : 0.1,
									"fontname" : "Arial",
									"fontsize" : 12.0,
									"id" : "obj-7",
									"linecount" : 4,
									"maxclass" : "comment",
									"numinlets" : 1,
									"numoutlets" : 0,
									"patching_rect" : [ 333.0, 196.0, 77.0, 64.0 ],
									"text" : "click the button to use presets "
								}

							}
, 							{
								"box" : 								{
									"bubble" : 1,
									"fontname" : "Arial",
									"fontsize" : 12.0,
									"id" : "obj-5",
									"linecount" : 3,
									"maxclass" : "comment",
									"numinlets" : 1,
									"numoutlets" : 0,
									"patching_rect" : [ 351.0, 350.5, 218.0, 51.0 ],
									"text" : "to use the module, create a seq.bar patcher and give it a unique name as the first argument"
								}

							}
, 							{
								"box" : 								{
									"id" : "obj-3",
									"maxclass" : "newobj",
									"numinlets" : 1,
									"numoutlets" : 2,
									"outlettype" : [ "signal", "" ],
									"patching_rect" : [ 39.0, 365.0, 293.0, 22.0 ],
									"text" : "seq.sequence sequence-help-2",
									"varname" : "sequence-help-2"
								}

							}
, 							{
								"box" : 								{
									"args" : [ "sequence-help" ],
									"bgmode" : 0,
									"border" : 0,
									"clickthrough" : 0,
									"enablehscroll" : 0,
									"enablevscroll" : 0,
									"id" : "obj-1",
									"lockeddragscroll" : 0,
									"lockedsize" : 0,
									"maxclass" : "bpatcher",
									"name" : "seq.sequence.maxpat",
									"numinlets" : 1,
									"numoutlets" : 2,
									"offset" : [ 0.0, 0.0 ],
									"outlettype" : [ "signal", "" ],
									"patching_rect" : [ 39.0, 196.0, 294.0, 105.0 ],
									"varname" : "sequence-help",
									"viewvisibility" : 1
								}

							}
, 							{
								"box" : 								{
									"fontname" : "Arial",
									"fontsize" : 12.0,
									"id" : "obj-2",
									"linecount" : 2,
									"maxclass" : "comment",
									"numinlets" : 1,
									"numoutlets" : 0,
									"patching_rect" : [ 10.0, 69.599853515625, 505.0, 33.0 ],
									"text" : "The abstraction seq.sequence (no tilde) contains the seq.sequence~ object, a UI and pattr support."
								}

							}
, 							{
								"box" : 								{
									"border" : 0,
									"filename" : "helpname.js",
									"id" : "obj-4",
									"ignoreclick" : 1,
									"jsarguments" : [ "seq.sequence~" ],
									"maxclass" : "jsui",
									"numinlets" : 1,
									"numoutlets" : 1,
									"outlettype" : [ "" ],
									"parameter_enable" : 0,
									"patching_rect" : [ 10.0, 10.0, 316.903961181640625, 57.599853515625 ]
								}

							}
, 							{
								"box" : 								{
									"id" : "obj-13",
									"maxclass" : "newobj",
									"numinlets" : 1,
									"numoutlets" : 3,
									"outlettype" : [ "", "", "" ],
									"patching_rect" : [ 430.0, 150.0, 310.0, 22.0 ],
									"restore" : [ 9.0 ],
									"saved_object_attributes" : 									{
										"parameter_enable" : 0,
										"parameter_mappable" : 0
									}
,
									"text" : "pattr @bindto sequence-help::m::seq-length @invisible 1",
									"varname" : "u159010436"
								}

							}
 ],
						"lines" : [ 							{
								"patchline" : 								{
									"destination" : [ "obj-19", 0 ],
									"source" : [ "obj-1", 0 ]
								}

							}
, 							{
								"patchline" : 								{
									"destination" : [ "obj-1", 0 ],
									"midpoints" : [ 439.5, 335.0, 23.0, 335.0, 23.0, 188.0, 48.5, 188.0 ],
									"source" : [ "obj-10", 0 ]
								}

							}
, 							{
								"patchline" : 								{
									"destination" : [ "obj-10", 0 ],
									"source" : [ "obj-12", 0 ]
								}

							}
, 							{
								"patchline" : 								{
									"destination" : [ "obj-16", 0 ],
									"source" : [ "obj-13", 0 ]
								}

							}
, 							{
								"patchline" : 								{
									"destination" : [ "obj-13", 0 ],
									"source" : [ "obj-14", 0 ]
								}

							}
, 							{
								"patchline" : 								{
									"destination" : [ "obj-9", 0 ],
									"source" : [ "obj-15", 0 ]
								}

							}
, 							{
								"patchline" : 								{
									"destination" : [ "obj-12", 0 ],
									"hidden" : 1,
									"order" : 0,
									"source" : [ "obj-16", 0 ]
								}

							}
, 							{
								"patchline" : 								{
									"destination" : [ "obj-14", 0 ],
									"midpoints" : [ 439.5, 207.782608695652243, 423.5, 207.782608695652243, 423.5, 113.282608695652243, 439.5, 113.282608695652243 ],
									"order" : 1,
									"source" : [ "obj-16", 0 ]
								}

							}
, 							{
								"patchline" : 								{
									"destination" : [ "obj-22", 0 ],
									"source" : [ "obj-20", 0 ]
								}

							}
, 							{
								"patchline" : 								{
									"destination" : [ "obj-1", 0 ],
									"source" : [ "obj-6", 0 ]
								}

							}
, 							{
								"patchline" : 								{
									"destination" : [ "obj-6", 0 ],
									"source" : [ "obj-9", 0 ]
								}

							}
 ]
					}
,
					"patching_rect" : [ 205.0, 206.0, 58.0, 22.0 ],
					"saved_object_attributes" : 					{
						"description" : "",
						"digest" : "",
						"globalpatchername" : "",
						"tags" : ""
					}
,
					"text" : "p module",
					"varname" : "module"
				}

			}
, 			{
				"box" : 				{
					"border" : 0,
					"filename" : "helpname.js",
					"id" : "obj-5",
					"ignoreclick" : 1,
					"jsarguments" : [ "seq.sequence~" ],
					"maxclass" : "jsui",
					"nofsaa" : 1,
					"numinlets" : 1,
					"numoutlets" : 1,
					"outlettype" : [ "" ],
					"parameter_enable" : 0,
					"patching_rect" : [ 10.0, 10.0, 316.903961181640625, 57.599853515625 ]
				}

			}
, 			{
				"box" : 				{
					"fontname" : "Arial",
					"fontsize" : 12.0,
					"id" : "obj-3",
					"maxclass" : "newobj",
					"numinlets" : 0,
					"numoutlets" : 0,
					"patcher" : 					{
						"fileversion" : 1,
						"appversion" : 						{
							"major" : 8,
							"minor" : 5,
							"revision" : 3,
							"architecture" : "x64",
							"modernui" : 1
						}
,
						"classnamespace" : "box",
						"rect" : [ 0.0, 26.0, 800.0, 567.0 ],
						"bglocked" : 0,
						"openinpresentation" : 0,
						"default_fontsize" : 13.0,
						"default_fontface" : 0,
						"default_fontname" : "Arial",
						"gridonopen" : 1,
						"gridsize" : [ 15.0, 15.0 ],
						"gridsnaponopen" : 1,
						"objectsnaponopen" : 1,
						"statusbarvisible" : 2,
						"toolbarvisible" : 1,
						"lefttoolbarpinned" : 0,
						"toptoolbarpinned" : 0,
						"righttoolbarpinned" : 0,
						"bottomtoolbarpinned" : 0,
						"toolbars_unpinned_last_save" : 0,
						"tallnewobj" : 0,
						"boxanimatetime" : 200,
						"enablehscroll" : 1,
						"enablevscroll" : 1,
						"devicewidth" : 0.0,
						"description" : "",
						"digest" : "",
						"tags" : "",
						"style" : "",
						"subpatcher_template" : "",
						"showontab" : 1,
						"assistshowspatchername" : 0,
						"boxes" : [  ],
						"lines" : [  ]
					}
,
					"patching_rect" : [ 291.0, 206.0, 50.0, 22.0 ],
					"saved_object_attributes" : 					{
						"description" : "",
						"digest" : "",
						"fontsize" : 13.0,
						"globalpatchername" : "",
						"tags" : ""
					}
,
					"text" : "p ?",
					"varname" : "q_tab"
				}

			}
, 			{
				"box" : 				{
					"id" : "obj-1",
					"maxclass" : "newobj",
					"numinlets" : 0,
					"numoutlets" : 0,
					"patcher" : 					{
						"fileversion" : 1,
						"appversion" : 						{
							"major" : 8,
							"minor" : 5,
							"revision" : 3,
							"architecture" : "x64",
							"modernui" : 1
						}
,
						"classnamespace" : "box",
						"rect" : [ 0.0, 26.0, 800.0, 567.0 ],
						"bglocked" : 0,
						"openinpresentation" : 0,
						"default_fontsize" : 12.0,
						"default_fontface" : 0,
						"default_fontname" : "Arial",
						"gridonopen" : 1,
						"gridsize" : [ 15.0, 15.0 ],
						"gridsnaponopen" : 1,
						"objectsnaponopen" : 1,
						"statusbarvisible" : 2,
						"toolbarvisible" : 1,
						"lefttoolbarpinned" : 0,
						"toptoolbarpinned" : 0,
						"righttoolbarpinned" : 0,
						"bottomtoolbarpinned" : 0,
						"toolbars_unpinned_last_save" : 0,
						"tallnewobj" : 0,
						"boxanimatetime" : 200,
						"enablehscroll" : 1,
						"enablevscroll" : 1,
						"devicewidth" : 0.0,
						"description" : "",
						"digest" : "",
						"tags" : "",
						"style" : "",
						"subpatcher_template" : "",
						"showontab" : 1,
						"assistshowspatchername" : 0,
						"boxes" : [ 							{
								"box" : 								{
									"bgcolor" : [ 1.0, 1.0, 1.0, 0.0 ],
									"cols" : 8,
									"colwidth" : 30,
									"fontface" : 0,
									"fontname" : "Arial",
									"fontsize" : 12.0,
									"grid" : 0,
									"hscroll" : 0,
									"id" : "obj-6",
									"maxclass" : "jit.cellblock",
									"numinlets" : 2,
									"numoutlets" : 4,
									"outlettype" : [ "list", "", "", "" ],
									"patching_rect" : [ 215.0, 263.0, 243.0, 20.0 ],
									"rows" : 1,
									"selmode" : 0,
									"vscroll" : 0
								}

							}
, 							{
								"box" : 								{
									"bgcolor" : [ 1.0, 0.788235, 0.470588, 1.0 ],
									"fontname" : "Arial Bold",
									"hint" : "",
									"id" : "obj-8",
									"ignoreclick" : 1,
									"legacytextcolor" : 1,
									"maxclass" : "textbutton",
									"numinlets" : 1,
									"numoutlets" : 3,
									"outlettype" : [ "", "", "int" ],
									"parameter_enable" : 0,
									"patching_rect" : [ 551.0, 217.5, 20.0, 20.0 ],
									"rounded" : 60.0,
									"text" : "2",
									"textcolor" : [ 0.34902, 0.34902, 0.34902, 1.0 ]
								}

							}
, 							{
								"box" : 								{
									"id" : "obj-10",
									"maxclass" : "toggle",
									"numinlets" : 1,
									"numoutlets" : 1,
									"outlettype" : [ "int" ],
									"parameter_enable" : 0,
									"patching_rect" : [ 22.0, 175.0, 24.0, 24.0 ]
								}

							}
, 							{
								"box" : 								{
									"fontface" : 0,
									"fontname" : "Arial",
									"fontsize" : 12.0,
									"id" : "obj-51",
									"maxclass" : "number~",
									"mode" : 2,
									"numinlets" : 2,
									"numoutlets" : 2,
									"outlettype" : [ "signal", "float" ],
									"patching_rect" : [ 35.0, 263.5, 56.0, 22.0 ],
									"sig" : 0.0
								}

							}
, 							{
								"box" : 								{
									"id" : "obj-46",
									"maxclass" : "newobj",
									"numinlets" : 1,
									"numoutlets" : 5,
									"outlettype" : [ "signal", "signal", "signal", "signal", "signal" ],
									"patching_rect" : [ 22.0, 239.0, 187.0, 22.0 ],
									"saved_object_attributes" : 									{
										"parameter_enable" : 0,
										"parameter_mappable" : 0
									}
,
									"text" : "seq.loop~ @steps 12"
								}

							}
, 							{
								"box" : 								{
									"id" : "obj-44",
									"maxclass" : "newobj",
									"numinlets" : 1,
									"numoutlets" : 4,
									"outlettype" : [ "signal", "signal", "signal", "" ],
									"patching_rect" : [ 22.0, 204.5, 56.0, 22.0 ],
									"saved_object_attributes" : 									{
										"parameter_enable" : 0,
										"parameter_mappable" : 0
									}
,
									"text" : "seq.bar~"
								}

							}
, 							{
								"box" : 								{
									"bubble" : 1,
									"fontname" : "Arial",
									"fontsize" : 13.0,
									"id" : "obj-23",
									"maxclass" : "comment",
									"numinlets" : 1,
									"numoutlets" : 0,
									"patching_rect" : [ 434.0, 388.0, 155.0, 25.0 ],
									"text" : "round the output value"
								}

							}
, 							{
								"box" : 								{
									"bubble" : 1,
									"fontname" : "Arial",
									"fontsize" : 13.0,
									"id" : "obj-22",
									"linecount" : 2,
									"maxclass" : "comment",
									"numinlets" : 1,
									"numoutlets" : 0,
									"patching_rect" : [ 434.0, 346.0, 82.0, 40.0 ],
									"text" : "offset the range"
								}

							}
, 							{
								"box" : 								{
									"bubble" : 1,
									"fontname" : "Arial",
									"fontsize" : 13.0,
									"id" : "obj-21",
									"maxclass" : "comment",
									"numinlets" : 1,
									"numoutlets" : 0,
									"patching_rect" : [ 429.0, 300.0, 101.0, 25.0 ],
									"text" : "set the range"
								}

							}
, 							{
								"box" : 								{
									"fontface" : 0,
									"fontname" : "Arial",
									"fontsize" : 12.0,
									"id" : "obj-16",
									"maxclass" : "number~",
									"mode" : 2,
									"numinlets" : 2,
									"numoutlets" : 2,
									"outlettype" : [ "signal", "float" ],
									"patching_rect" : [ 22.0, 459.0, 56.0, 22.0 ],
									"sig" : 0.0
								}

							}
, 							{
								"box" : 								{
									"bgcolor" : [ 1.0, 0.788235, 0.470588, 1.0 ],
									"fontname" : "Arial Bold",
									"hint" : "",
									"id" : "obj-15",
									"ignoreclick" : 1,
									"legacytextcolor" : 1,
									"maxclass" : "textbutton",
									"numinlets" : 1,
									"numoutlets" : 3,
									"outlettype" : [ "", "", "int" ],
									"parameter_enable" : 0,
									"patching_rect" : [ 151.0, 176.5, 20.0, 20.0 ],
									"rounded" : 60.0,
									"text" : "3",
									"textcolor" : [ 0.34902, 0.34902, 0.34902, 1.0 ]
								}

							}
, 							{
								"box" : 								{
									"bubble" : 1,
									"fontname" : "Arial",
									"fontsize" : 13.0,
									"id" : "obj-14",
									"maxclass" : "comment",
									"numinlets" : 1,
									"numoutlets" : 0,
									"patching_rect" : [ 51.0, 175.0, 108.0, 25.0 ],
									"text" : "start the clock"
								}

							}
, 							{
								"box" : 								{
									"id" : "obj-4",
									"maxclass" : "multislider",
									"numinlets" : 1,
									"numoutlets" : 2,
									"outlettype" : [ "", "" ],
									"parameter_enable" : 0,
									"patching_rect" : [ 215.0, 213.5, 243.0, 48.0 ],
									"setminmax" : [ 0.0, 1.0 ],
									"size" : 8
								}

							}
, 							{
								"box" : 								{
									"id" : "obj-3",
									"maxclass" : "newobj",
									"numinlets" : 2,
									"numoutlets" : 2,
									"outlettype" : [ "signal", "" ],
									"patching_rect" : [ 22.0, 413.0, 212.0, 22.0 ],
									"saved_object_attributes" : 									{
										"parameter_enable" : 0,
										"parameter_mappable" : 0
									}
,
									"text" : "seq.sequence~"
								}

							}
, 							{
								"box" : 								{
									"bubble" : 1,
									"fontname" : "Arial",
									"fontsize" : 13.0,
									"id" : "obj-30",
									"linecount" : 2,
									"maxclass" : "comment",
									"numinlets" : 1,
									"numoutlets" : 0,
									"patching_rect" : [ 460.0, 217.5, 111.0, 40.0 ],
									"text" : "draw some values (0 - 1)"
								}

							}
, 							{
								"box" : 								{
									"bgcolor" : [ 1.0, 0.788235, 0.470588, 1.0 ],
									"fontname" : "Arial Bold",
									"hint" : "",
									"id" : "obj-1",
									"ignoreclick" : 1,
									"legacytextcolor" : 1,
									"maxclass" : "textbutton",
									"numinlets" : 1,
									"numoutlets" : 3,
									"outlettype" : [ "", "", "int" ],
									"parameter_enable" : 0,
									"patching_rect" : [ 360.0, 175.0, 20.0, 20.0 ],
									"rounded" : 60.0,
									"text" : "1",
									"textcolor" : [ 0.34902, 0.34902, 0.34902, 1.0 ]
								}

							}
, 							{
								"box" : 								{
									"bubble" : 1,
									"fontname" : "Arial",
									"fontsize" : 13.0,
									"id" : "obj-26",
									"maxclass" : "comment",
									"numinlets" : 1,
									"numoutlets" : 0,
									"patching_rect" : [ 256.0, 172.5, 108.0, 25.0 ],
									"text" : "turn on audio"
								}

							}
, 							{
								"box" : 								{
									"id" : "obj-7",
									"local" : 1,
									"maxclass" : "ezdac~",
									"numinlets" : 2,
									"numoutlets" : 0,
									"patching_rect" : [ 215.0, 163.0, 44.0, 44.0 ],
									"prototypename" : "helpfile"
								}

							}
, 							{
								"box" : 								{
									"border" : 0,
									"filename" : "helpdetails.js",
									"id" : "obj-2",
									"ignoreclick" : 1,
									"jsarguments" : [ "seq.sequence~" ],
									"maxclass" : "jsui",
									"nofsaa" : 1,
									"numinlets" : 1,
									"numoutlets" : 1,
									"outlettype" : [ "" ],
									"parameter_enable" : 0,
									"patching_rect" : [ 6.0, 8.0, 605.0, 145.0 ]
								}

							}
, 							{
								"box" : 								{
									"attr" : "high",
									"id" : "obj-17",
									"maxclass" : "attrui",
									"numinlets" : 1,
									"numoutlets" : 1,
									"outlettype" : [ "" ],
									"parameter_enable" : 0,
									"patching_rect" : [ 277.0, 294.0, 150.0, 22.0 ]
								}

							}
, 							{
								"box" : 								{
									"attr" : "low",
									"id" : "obj-18",
									"maxclass" : "attrui",
									"numinlets" : 1,
									"numoutlets" : 1,
									"outlettype" : [ "" ],
									"parameter_enable" : 0,
									"patching_rect" : [ 277.0, 318.0, 150.0, 22.0 ]
								}

							}
, 							{
								"box" : 								{
									"attr" : "offset",
									"id" : "obj-19",
									"maxclass" : "attrui",
									"numinlets" : 1,
									"numoutlets" : 1,
									"outlettype" : [ "" ],
									"parameter_enable" : 0,
									"patching_rect" : [ 277.0, 355.0, 150.0, 22.0 ]
								}

							}
, 							{
								"box" : 								{
									"attr" : "stepsize",
									"id" : "obj-20",
									"maxclass" : "attrui",
									"numinlets" : 1,
									"numoutlets" : 1,
									"outlettype" : [ "" ],
									"parameter_enable" : 0,
									"patching_rect" : [ 277.0, 388.0, 150.0, 22.0 ],
									"text_width" : 85.0
								}

							}
, 							{
								"box" : 								{
									"id" : "obj-5",
									"maxclass" : "newobj",
									"numinlets" : 1,
									"numoutlets" : 1,
									"outlettype" : [ "multichannelsignal" ],
									"patching_rect" : [ 215.0, 239.0, 107.0, 22.0 ],
									"text" : "mc.list~ @chans 8"
								}

							}
 ],
						"lines" : [ 							{
								"patchline" : 								{
									"destination" : [ "obj-44", 0 ],
									"source" : [ "obj-10", 0 ]
								}

							}
, 							{
								"patchline" : 								{
									"destination" : [ "obj-3", 0 ],
									"source" : [ "obj-17", 0 ]
								}

							}
, 							{
								"patchline" : 								{
									"destination" : [ "obj-3", 0 ],
									"source" : [ "obj-18", 0 ]
								}

							}
, 							{
								"patchline" : 								{
									"destination" : [ "obj-3", 0 ],
									"source" : [ "obj-19", 0 ]
								}

							}
, 							{
								"patchline" : 								{
									"destination" : [ "obj-3", 0 ],
									"source" : [ "obj-20", 0 ]
								}

							}
, 							{
								"patchline" : 								{
									"destination" : [ "obj-16", 0 ],
									"source" : [ "obj-3", 0 ]
								}

							}
, 							{
								"patchline" : 								{
									"destination" : [ "obj-3", 1 ],
									"order" : 0,
									"source" : [ "obj-4", 0 ]
								}

							}
, 							{
								"patchline" : 								{
									"destination" : [ "obj-5", 0 ],
									"order" : 1,
									"source" : [ "obj-4", 0 ]
								}

							}
, 							{
								"patchline" : 								{
									"destination" : [ "obj-46", 0 ],
									"source" : [ "obj-44", 0 ]
								}

							}
, 							{
								"patchline" : 								{
									"destination" : [ "obj-3", 0 ],
									"order" : 1,
									"source" : [ "obj-46", 0 ]
								}

							}
, 							{
								"patchline" : 								{
									"destination" : [ "obj-51", 0 ],
									"order" : 0,
									"source" : [ "obj-46", 0 ]
								}

							}
, 							{
								"patchline" : 								{
									"destination" : [ "obj-6", 0 ],
									"source" : [ "obj-5", 0 ]
								}

							}
 ]
					}
,
					"patching_rect" : [ 31.0, 206.0, 47.0, 22.0 ],
					"saved_object_attributes" : 					{
						"description" : "",
						"digest" : "",
						"globalpatchername" : "",
						"tags" : ""
					}
,
					"text" : "p basic",
					"varname" : "basic"
				}

			}
 ],
		"lines" : [  ],
		"parameters" : 		{
			"obj-2::obj-156::obj-10" : [ "live.numbox[26]", "live.numbox", 0 ],
			"obj-2::obj-156::obj-30" : [ "live.numbox[43]", "live.numbox", 0 ],
			"obj-2::obj-156::obj-31" : [ "live.numbox[44]", "live.numbox", 0 ],
			"obj-2::obj-156::obj-32" : [ "live.numbox[46]", "live.numbox", 0 ],
			"obj-2::obj-156::obj-33" : [ "live.numbox[45]", "live.numbox", 0 ],
			"obj-6::obj-1::obj-18::obj-14" : [ "live.numbox[37]", "live.numbox[19]", 0 ],
			"obj-6::obj-1::obj-18::obj-2" : [ "live.button[15]", "live.button", 0 ],
			"obj-6::obj-1::obj-18::obj-38::obj-1" : [ "live.numbox[35]", "live.numbox[19]", 0 ],
			"obj-6::obj-1::obj-18::obj-38::obj-16" : [ "live.numbox[34]", "live.numbox[19]", 0 ],
			"obj-6::obj-1::obj-18::obj-38::obj-20" : [ "live.numbox[33]", "live.numbox[19]", 0 ],
			"obj-6::obj-1::obj-18::obj-38::obj-22" : [ "live.numbox[36]", "live.numbox[19]", 0 ],
			"obj-6::obj-1::obj-18::obj-9" : [ "live.text[20]", "live.text", 0 ],
			"obj-6::obj-1::obj-2::obj-25" : [ "live.button[14]", "live.button", 0 ],
			"obj-6::obj-3::obj-18::obj-14" : [ "live.numbox[5]", "live.numbox[19]", 0 ],
			"obj-6::obj-3::obj-18::obj-2" : [ "live.button[2]", "live.button", 0 ],
			"obj-6::obj-3::obj-18::obj-38::obj-1" : [ "live.numbox[4]", "live.numbox[19]", 0 ],
			"obj-6::obj-3::obj-18::obj-38::obj-16" : [ "live.numbox[3]", "live.numbox[19]", 0 ],
			"obj-6::obj-3::obj-18::obj-38::obj-20" : [ "live.numbox[2]", "live.numbox[19]", 0 ],
			"obj-6::obj-3::obj-18::obj-38::obj-22" : [ "live.numbox[1]", "live.numbox[19]", 0 ],
			"obj-6::obj-3::obj-18::obj-9" : [ "live.text[2]", "live.text", 0 ],
			"obj-6::obj-3::obj-2::obj-25" : [ "live.button[1]", "live.button", 0 ],
			"parameterbanks" : 			{
				"0" : 				{
					"index" : 0,
					"name" : "",
					"parameters" : [ "-", "-", "-", "-", "-", "-", "-", "-" ]
				}

			}
,
			"parameter_overrides" : 			{
				"obj-6::obj-1::obj-18::obj-14" : 				{
					"parameter_longname" : "live.numbox[37]"
				}
,
				"obj-6::obj-1::obj-18::obj-2" : 				{
					"parameter_longname" : "live.button[15]"
				}
,
				"obj-6::obj-1::obj-18::obj-38::obj-1" : 				{
					"parameter_longname" : "live.numbox[35]"
				}
,
				"obj-6::obj-1::obj-18::obj-38::obj-16" : 				{
					"parameter_longname" : "live.numbox[34]"
				}
,
				"obj-6::obj-1::obj-18::obj-38::obj-20" : 				{
					"parameter_longname" : "live.numbox[33]"
				}
,
				"obj-6::obj-1::obj-18::obj-38::obj-22" : 				{
					"parameter_longname" : "live.numbox[36]"
				}
,
				"obj-6::obj-1::obj-18::obj-9" : 				{
					"parameter_longname" : "live.text[20]"
				}
,
				"obj-6::obj-3::obj-18::obj-14" : 				{
					"parameter_longname" : "live.numbox[5]"
				}
,
				"obj-6::obj-3::obj-18::obj-2" : 				{
					"parameter_longname" : "live.button[2]"
				}
,
				"obj-6::obj-3::obj-18::obj-38::obj-1" : 				{
					"parameter_longname" : "live.numbox[4]"
				}
,
				"obj-6::obj-3::obj-18::obj-38::obj-16" : 				{
					"parameter_longname" : "live.numbox[3]"
				}
,
				"obj-6::obj-3::obj-18::obj-38::obj-20" : 				{
					"parameter_longname" : "live.numbox[2]"
				}
,
				"obj-6::obj-3::obj-18::obj-38::obj-22" : 				{
					"parameter_longname" : "live.numbox[1]"
				}
,
				"obj-6::obj-3::obj-18::obj-9" : 				{
					"parameter_longname" : "live.text[2]"
				}
,
				"obj-6::obj-3::obj-2::obj-25" : 				{
					"parameter_longname" : "live.button[1]"
				}

			}
,
			"inherited_shortname" : 1
		}
,
		"dependency_cache" : [ 			{
				"name" : "helpdetails.js",
				"bootpath" : "C74:/help/resources",
				"type" : "TEXT",
				"implicit" : 1
			}
, 			{
				"name" : "helpname.js",
				"bootpath" : "C74:/help/resources",
				"type" : "TEXT",
				"implicit" : 1
			}
, 			{
				"name" : "seq.bar~.mxo",
				"type" : "iLaX"
			}
, 			{
				"name" : "seq.loop~.mxo",
				"type" : "iLaX"
			}
, 			{
				"name" : "seq.module.attrchecker.maxpat",
				"bootpath" : "~/Documents/Max 8/Packages/seq/patchers/_module-components",
				"patcherrelativepath" : "../patchers/_module-components",
				"type" : "JSON",
				"implicit" : 1
			}
, 			{
				"name" : "seq.module.control.js",
				"bootpath" : "~/Documents/Max 8/Packages/seq/patchers/_module-components",
				"patcherrelativepath" : "../patchers/_module-components",
				"type" : "TEXT",
				"implicit" : 1
			}
, 			{
				"name" : "seq.module.control.maxpat",
				"bootpath" : "~/Documents/Max 8/Packages/seq/patchers/_module-components",
				"patcherrelativepath" : "../patchers/_module-components",
				"type" : "JSON",
				"implicit" : 1
			}
, 			{
				"name" : "seq.module.remote.maxpat",
				"bootpath" : "~/Documents/Max 8/Packages/seq/patchers/_module-components",
				"patcherrelativepath" : "../patchers/_module-components",
				"type" : "JSON",
				"implicit" : 1
			}
, 			{
				"name" : "seq.module.viewcontrol.maxpat",
				"bootpath" : "~/Documents/Max 8/Packages/seq/patchers/_module-components",
				"patcherrelativepath" : "../patchers/_module-components",
				"type" : "JSON",
				"implicit" : 1
			}
, 			{
				"name" : "seq.sequence.maxpat",
				"bootpath" : "~/Documents/Max 8/Packages/seq/patchers/modules/sequence",
				"patcherrelativepath" : "../patchers/modules/sequence",
				"type" : "JSON",
				"implicit" : 1
			}
, 			{
				"name" : "seq.sequence.model.maxpat",
				"bootpath" : "~/Documents/Max 8/Packages/seq/patchers/modules/sequence",
				"patcherrelativepath" : "../patchers/modules/sequence",
				"type" : "JSON",
				"implicit" : 1
			}
, 			{
				"name" : "seq.sequence.ui.maxpat",
				"bootpath" : "~/Documents/Max 8/Packages/seq/patchers/modules/sequence",
				"patcherrelativepath" : "../patchers/modules/sequence",
				"type" : "JSON",
				"implicit" : 1
			}
, 			{
				"name" : "seq.sequence.view.maxpat",
				"bootpath" : "~/Documents/Max 8/Packages/seq/patchers/modules/sequence",
				"patcherrelativepath" : "../patchers/modules/sequence",
				"type" : "JSON",
				"implicit" : 1
			}
, 			{
				"name" : "seq.sequence~.mxo",
				"type" : "iLaX"
			}
, 			{
				"name" : "tri-down.svg",
				"bootpath" : "~/Documents/Max 8/Packages/seq/media/icons",
				"patcherrelativepath" : "../media/icons",
				"type" : "svg",
				"implicit" : 1
			}
, 			{
				"name" : "tri-up.svg",
				"bootpath" : "~/Documents/Max 8/Packages/seq/media/icons",
				"patcherrelativepath" : "../media/icons",
				"type" : "svg",
				"implicit" : 1
			}
 ],
		"autosave" : 0
	}

}
