{
	"patcher" : 	{
		"fileversion" : 1,
		"appversion" : 		{
			"major" : 9,
			"minor" : 0,
			"revision" : 0,
			"architecture" : "x64",
			"modernui" : 1
		}
,
		"classnamespace" : "box",
		"rect" : [ 176.0, 151.0, 958.0, 572.0 ],
		"bglocked" : 0,
		"openinpresentation" : 1,
		"default_fontsize" : 12.0,
		"default_fontface" : 0,
		"default_fontname" : "Arial",
		"gridonopen" : 1,
		"gridsize" : [ 15.0, 15.0 ],
		"gridsnaponopen" : 1,
		"objectsnaponopen" : 1,
		"statusbarvisible" : 2,
		"toolbarvisible" : 1,
		"lefttoolbarpinned" : 0,
		"toptoolbarpinned" : 0,
		"righttoolbarpinned" : 0,
		"bottomtoolbarpinned" : 0,
		"toolbars_unpinned_last_save" : 0,
		"tallnewobj" : 0,
		"boxanimatetime" : 200,
		"enablehscroll" : 1,
		"enablevscroll" : 1,
		"devicewidth" : 0.0,
		"description" : "",
		"digest" : "",
		"tags" : "",
		"style" : "",
		"subpatcher_template" : "",
		"assistshowspatchername" : 0,
		"boxes" : [ 			{
				"box" : 				{
					"id" : "obj-8",
					"maxclass" : "newobj",
					"numinlets" : 1,
					"numoutlets" : 6,
					"outlettype" : [ "signal", "bang", "int", "float", "", "list" ],
					"patching_rect" : [ 18.75, 64.0, 71.5, 22.0 ],
					"text" : "typeroute~"
				}

			}
, 			{
				"box" : 				{
					"args" : [ "@ignoreclick", 1 ],
					"bgmode" : 0,
					"border" : 0,
					"clickthrough" : 0,
					"enablehscroll" : 0,
					"enablevscroll" : 0,
					"id" : "obj-4",
					"lockeddragscroll" : 0,
					"lockedsize" : 0,
					"maxclass" : "bpatcher",
					"name" : "rtt.module.patternui.maxpat",
					"numinlets" : 3,
					"numoutlets" : 0,
					"offset" : [ 0.0, 0.0 ],
					"patching_rect" : [ 32.0, 296.0, 257.0, 46.0 ],
					"presentation" : 1,
					"presentation_rect" : [ 0.0, 39.635176891717947, 228.384389460086823, 19.0 ],
					"viewvisibility" : 1
				}

			}
, 			{
				"box" : 				{
					"appearance" : 1,
					"button" : 1,
					"id" : "obj-7",
					"lcdcolor" : [ 0.792156862745098, 0.792156862745098, 0.031372549019608, 1.0 ],
					"maxclass" : "live.tab",
					"num_lines_patching" : 1,
					"num_lines_presentation" : 1,
					"numinlets" : 1,
					"numoutlets" : 3,
					"outlettype" : [ "", "", "float" ],
					"parameter_enable" : 1,
					"parameter_mappable" : 0,
					"patching_rect" : [ 583.5, 194.0, 42.0, 15.0 ],
					"presentation" : 1,
					"presentation_rect" : [ 217.640009295940388, 21.0, 34.0, 14.0 ],
					"saved_attribute_attributes" : 					{
						"lcdcolor" : 						{
							"expression" : ""
						}
,
						"valueof" : 						{
							"parameter_enum" : [ "-", "+" ],
							"parameter_invisible" : 2,
							"parameter_longname" : "trig increment[1]",
							"parameter_mmax" : 1,
							"parameter_shortname" : "trig inc",
							"parameter_type" : 2,
							"parameter_unitstyle" : 9
						}

					}
,
					"varname" : "live.tab[2]"
				}

			}
, 			{
				"box" : 				{
					"appearance" : 1,
					"button" : 1,
					"id" : "obj-12",
					"lcdcolor" : [ 0.792156862745098, 0.792156862745098, 0.031372549019608, 1.0 ],
					"maxclass" : "live.tab",
					"num_lines_patching" : 1,
					"num_lines_presentation" : 1,
					"numinlets" : 1,
					"numoutlets" : 3,
					"outlettype" : [ "", "", "float" ],
					"parameter_enable" : 1,
					"parameter_mappable" : 0,
					"patching_rect" : [ 583.5, 142.0, 42.0, 15.0 ],
					"presentation" : 1,
					"presentation_rect" : [ 123.200023829936981, 21.0, 34.0, 14.0 ],
					"saved_attribute_attributes" : 					{
						"lcdcolor" : 						{
							"expression" : ""
						}
,
						"valueof" : 						{
							"parameter_enum" : [ "-", "+" ],
							"parameter_invisible" : 2,
							"parameter_longname" : "trig increment[33]",
							"parameter_mmax" : 1,
							"parameter_shortname" : "trig inc",
							"parameter_type" : 2,
							"parameter_unitstyle" : 9
						}

					}
,
					"varname" : "live.tab[1]"
				}

			}
, 			{
				"box" : 				{
					"appearance" : 1,
					"button" : 1,
					"id" : "obj-165",
					"lcdcolor" : [ 0.792156862745098, 0.792156862745098, 0.031372549019608, 1.0 ],
					"maxclass" : "live.tab",
					"num_lines_patching" : 1,
					"num_lines_presentation" : 1,
					"numinlets" : 1,
					"numoutlets" : 3,
					"outlettype" : [ "", "", "float" ],
					"parameter_enable" : 1,
					"parameter_mappable" : 0,
					"patching_rect" : [ 583.5, 86.25, 42.0, 15.0 ],
					"presentation" : 1,
					"presentation_rect" : [ 31.400014460086823, 21.0, 34.0, 14.0 ],
					"saved_attribute_attributes" : 					{
						"lcdcolor" : 						{
							"expression" : ""
						}
,
						"valueof" : 						{
							"parameter_enum" : [ "-", "+" ],
							"parameter_invisible" : 2,
							"parameter_longname" : "trig increment[2]",
							"parameter_mmax" : 1,
							"parameter_shortname" : "trig inc",
							"parameter_type" : 2,
							"parameter_unitstyle" : 9
						}

					}
,
					"varname" : "live.tab[16]"
				}

			}
, 			{
				"box" : 				{
					"appearance" : 4,
					"id" : "obj-34",
					"lcdcolor" : [ 0.792156862745098, 0.792156862745098, 0.031372549019608, 1.0 ],
					"maxclass" : "live.numbox",
					"numinlets" : 1,
					"numoutlets" : 2,
					"outlettype" : [ "", "float" ],
					"parameter_enable" : 1,
					"patching_rect" : [ 344.5, 285.0, 44.0, 15.0 ],
					"presentation" : 1,
					"presentation_rect" : [ 189.200023829936981, 20.5, 28.0, 15.0 ],
					"saved_attribute_attributes" : 					{
						"lcdcolor" : 						{
							"expression" : ""
						}
,
						"valueof" : 						{
							"parameter_initial" : [ 0.0 ],
							"parameter_longname" : "sequence rotate[4]",
							"parameter_mmax" : 255.0,
							"parameter_mmin" : -255.0,
							"parameter_order" : 3,
							"parameter_shortname" : "rotate",
							"parameter_type" : 0,
							"parameter_unitstyle" : 0
						}

					}
,
					"textjustification" : 0,
					"varname" : "rotate[1]"
				}

			}
, 			{
				"box" : 				{
					"appearance" : 4,
					"id" : "obj-33",
					"lcdcolor" : [ 0.792156862745098, 0.792156862745098, 0.031372549019608, 1.0 ],
					"maxclass" : "live.numbox",
					"numinlets" : 1,
					"numoutlets" : 2,
					"outlettype" : [ "", "float" ],
					"parameter_enable" : 1,
					"patching_rect" : [ 344.5, 232.0, 44.0, 15.0 ],
					"presentation" : 1,
					"presentation_rect" : [ 95.200023829936981, 20.5, 28.0, 15.0 ],
					"saved_attribute_attributes" : 					{
						"lcdcolor" : 						{
							"expression" : ""
						}
,
						"valueof" : 						{
							"parameter_enum" : [ "0", "1" ],
							"parameter_initial" : [ 3.0 ],
							"parameter_longname" : "sequence trigs[12]",
							"parameter_mmax" : 255.0,
							"parameter_order" : 1,
							"parameter_shortname" : "trigs",
							"parameter_type" : 1,
							"parameter_unitstyle" : 0
						}

					}
,
					"textjustification" : 0,
					"varname" : "live.numbox"
				}

			}
, 			{
				"box" : 				{
					"appearance" : 4,
					"id" : "obj-29",
					"lcdcolor" : [ 0.792156862745098, 0.792156862745098, 0.031372549019608, 1.0 ],
					"maxclass" : "live.numbox",
					"numinlets" : 1,
					"numoutlets" : 2,
					"outlettype" : [ "", "float" ],
					"parameter_enable" : 1,
					"patching_rect" : [ 344.5, 181.0, 44.0, 15.0 ],
					"presentation" : 1,
					"presentation_rect" : [ 3.400014460086823, 20.5, 28.0, 15.0 ],
					"saved_attribute_attributes" : 					{
						"lcdcolor" : 						{
							"expression" : ""
						}
,
						"valueof" : 						{
							"parameter_initial" : [ 8 ],
							"parameter_longname" : "sequence length[3]",
							"parameter_mmax" : 255.0,
							"parameter_mmin" : 1.0,
							"parameter_order" : 2,
							"parameter_shortname" : "steps",
							"parameter_type" : 1,
							"parameter_unitstyle" : 0
						}

					}
,
					"textjustification" : 0,
					"varname" : "live.numbox[1]"
				}

			}
, 			{
				"box" : 				{
					"color" : [ 0.650980392156863, 0.301960784313725, 0.309803921568627, 1.0 ],
					"id" : "obj-14",
					"maxclass" : "newobj",
					"numinlets" : 2,
					"numoutlets" : 3,
					"outlettype" : [ "", "", "" ],
					"patching_rect" : [ 396.5, 281.5, 193.0, 22.0 ],
					"text" : "rtt.module.remote rotate @levels 1"
				}

			}
, 			{
				"box" : 				{
					"color" : [ 0.650980392156863, 0.301960784313725, 0.309803921568627, 1.0 ],
					"id" : "obj-15",
					"maxclass" : "newobj",
					"numinlets" : 2,
					"numoutlets" : 3,
					"outlettype" : [ "", "", "" ],
					"patching_rect" : [ 396.5, 228.5, 197.0, 22.0 ],
					"text" : "rtt.module.remote events @levels 1"
				}

			}
, 			{
				"box" : 				{
					"color" : [ 0.650980392156863, 0.301960784313725, 0.309803921568627, 1.0 ],
					"id" : "obj-1",
					"maxclass" : "newobj",
					"numinlets" : 2,
					"numoutlets" : 3,
					"outlettype" : [ "", "", "" ],
					"patching_rect" : [ 396.5, 175.0, 191.0, 22.0 ],
					"text" : "rtt.module.remote steps @levels 1"
				}

			}
, 			{
				"box" : 				{
					"id" : "obj-6",
					"maxclass" : "newobj",
					"numinlets" : 1,
					"numoutlets" : 1,
					"outlettype" : [ "" ],
					"patching_rect" : [ 236.0, 218.0, 70.0, 22.0 ],
					"text" : "loadmess 0"
				}

			}
, 			{
				"box" : 				{
					"activebgoncolor" : [ 0.647058823529412, 0.647058823529412, 0.647058823529412, 1.0 ],
					"id" : "obj-9",
					"maxclass" : "live.text",
					"numinlets" : 1,
					"numoutlets" : 2,
					"outlettype" : [ "", "" ],
					"parameter_enable" : 1,
					"patching_rect" : [ 236.0, 244.0, 29.0, 23.0 ],
					"pictures" : [ "tri-down.svg", "tri-up.svg" ],
					"presentation" : 1,
					"presentation_rect" : [ 230.384389460086823, 43.135176891717947, 25.015625, 13.5 ],
					"remapsvgcolors" : 1,
					"saved_attribute_attributes" : 					{
						"activebgoncolor" : 						{
							"expression" : "themecolor.live_control_bg"
						}
,
						"valueof" : 						{
							"parameter_enum" : [ "val1", "val2" ],
							"parameter_longname" : "live.text[50]",
							"parameter_mmax" : 1,
							"parameter_shortname" : "live.text",
							"parameter_type" : 2
						}

					}
,
					"usepicture" : 1,
					"varname" : "live.text"
				}

			}
, 			{
				"box" : 				{
					"comment" : "",
					"id" : "obj-65",
					"index" : 1,
					"maxclass" : "outlet",
					"numinlets" : 1,
					"numoutlets" : 0,
					"patching_rect" : [ 201.5, 148.75, 30.0, 30.0 ]
				}

			}
, 			{
				"box" : 				{
					"activebgoncolor" : [ 0.83921568627451, 0.423529411764706, 0.023529411764706, 1.0 ],
					"id" : "obj-2",
					"maxclass" : "live.button",
					"numinlets" : 1,
					"numoutlets" : 1,
					"outlettype" : [ "" ],
					"parameter_enable" : 1,
					"patching_rect" : [ 230.0, 126.0, 15.0, 15.0 ],
					"presentation" : 1,
					"presentation_rect" : [ 237.400014460086823, 2.0, 15.0, 15.0 ],
					"saved_attribute_attributes" : 					{
						"activebgoncolor" : 						{
							"expression" : ""
						}
,
						"valueof" : 						{
							"parameter_enum" : [ "off", "on" ],
							"parameter_longname" : "live.button[85]",
							"parameter_mmax" : 1,
							"parameter_shortname" : "live.button",
							"parameter_type" : 2
						}

					}
,
					"varname" : "live.button"
				}

			}
, 			{
				"box" : 				{
					"color" : [ 0.83921568627451, 0.423529411764706, 0.023529411764706, 1.0 ],
					"id" : "obj-60",
					"maxclass" : "newobj",
					"numinlets" : 2,
					"numoutlets" : 4,
					"outlettype" : [ "", "clear", "", "" ],
					"patching_rect" : [ 56.166666666666742, 111.0, 125.0, 22.0 ],
					"text" : "rtt.module.viewcontrol"
				}

			}
, 			{
				"box" : 				{
					"comment" : "",
					"id" : "obj-38",
					"index" : 1,
					"maxclass" : "inlet",
					"numinlets" : 0,
					"numoutlets" : 1,
					"outlettype" : [ "signal" ],
					"patching_rect" : [ 22.0, 8.0, 30.0, 30.0 ]
				}

			}
, 			{
				"box" : 				{
					"bgcolor" : [ 0.847058823529412, 0.847058823529412, 0.847058823529412, 1.0 ],
					"bgfillcolor_angle" : 270.0,
					"bgfillcolor_autogradient" : 0.0,
					"bgfillcolor_color" : [ 0.847058823529412, 0.847058823529412, 0.847058823529412, 1.0 ],
					"bgfillcolor_color1" : [ 1.0, 1.0, 1.0, 1.0 ],
					"bgfillcolor_color2" : [ 0.2, 0.2, 0.2, 1.0 ],
					"bgfillcolor_proportion" : 0.5,
					"bgfillcolor_type" : "color",
					"fontsize" : 8.0,
					"id" : "obj-3",
					"items" : [ "pattern", ",", "steps", ",", "counter", ",", "output", ",", "trigger", ",", "events", ",", "rotate" ],
					"maxclass" : "umenu",
					"numinlets" : 1,
					"numoutlets" : 3,
					"outlettype" : [ "int", "", "" ],
					"parameter_enable" : 0,
					"patching_rect" : [ 60.333333333333343, 154.25, 66.0, 17.0 ],
					"presentation" : 1,
					"presentation_rect" : [ 185.400014460086823, 1.0, 50.0, 17.0 ],
					"textcolor" : [ 0.0, 0.0, 0.0, 1.0 ]
				}

			}
, 			{
				"box" : 				{
					"fontsize" : 10.0,
					"id" : "obj-5",
					"maxclass" : "comment",
					"numinlets" : 1,
					"numoutlets" : 0,
					"patching_rect" : [ 56.166666666666742, 181.0, 82.0, 18.0 ],
					"presentation" : 1,
					"presentation_rect" : [ 3.400014460086823, 0.5, 134.0, 18.0 ],
					"text" : "euc",
					"textcolor" : [ 0.0, 0.0, 0.0, 1.0 ]
				}

			}
, 			{
				"box" : 				{
					"angle" : 270.0,
					"bgcolor" : [ 1.0, 1.0, 1.0, 1.0 ],
					"bordercolor" : [ 1.0, 1.0, 1.0, 0.0 ],
					"id" : "obj-10",
					"maxclass" : "panel",
					"mode" : 0,
					"numinlets" : 1,
					"numoutlets" : 0,
					"patching_rect" : [ 76.200000000000045, 27.0, 79.0, 19.0 ],
					"presentation" : 1,
					"presentation_rect" : [ 0.0, 0.0, 255.400014460086823, 19.0 ],
					"proportion" : 0.5
				}

			}
, 			{
				"box" : 				{
					"angle" : 270.0,
					"bgcolor" : [ 0.847058823529412, 0.847058823529412, 0.847058823529412, 1.0 ],
					"bordercolor" : [ 1.0, 1.0, 1.0, 0.0 ],
					"id" : "obj-11",
					"maxclass" : "panel",
					"mode" : 0,
					"numinlets" : 1,
					"numoutlets" : 0,
					"patching_rect" : [ 76.200000000000045, 27.0, 79.0, 19.0 ],
					"presentation" : 1,
					"presentation_rect" : [ 0.0, 0.0, 255.400014460086823, 59.135176891717947 ],
					"proportion" : 0.5
				}

			}
 ],
		"lines" : [ 			{
				"patchline" : 				{
					"destination" : [ "obj-29", 0 ],
					"order" : 0,
					"source" : [ "obj-1", 0 ]
				}

			}
, 			{
				"patchline" : 				{
					"destination" : [ "obj-4", 2 ],
					"order" : 1,
					"source" : [ "obj-1", 0 ]
				}

			}
, 			{
				"patchline" : 				{
					"destination" : [ "obj-15", 1 ],
					"source" : [ "obj-12", 1 ]
				}

			}
, 			{
				"patchline" : 				{
					"destination" : [ "obj-15", 1 ],
					"source" : [ "obj-12", 0 ]
				}

			}
, 			{
				"patchline" : 				{
					"destination" : [ "obj-34", 0 ],
					"source" : [ "obj-14", 0 ]
				}

			}
, 			{
				"patchline" : 				{
					"destination" : [ "obj-33", 0 ],
					"source" : [ "obj-15", 0 ]
				}

			}
, 			{
				"patchline" : 				{
					"destination" : [ "obj-1", 1 ],
					"source" : [ "obj-165", 0 ]
				}

			}
, 			{
				"patchline" : 				{
					"destination" : [ "obj-65", 0 ],
					"source" : [ "obj-2", 0 ]
				}

			}
, 			{
				"patchline" : 				{
					"destination" : [ "obj-1", 0 ],
					"source" : [ "obj-29", 0 ]
				}

			}
, 			{
				"patchline" : 				{
					"destination" : [ "obj-60", 1 ],
					"source" : [ "obj-3", 1 ]
				}

			}
, 			{
				"patchline" : 				{
					"destination" : [ "obj-15", 0 ],
					"source" : [ "obj-33", 0 ]
				}

			}
, 			{
				"patchline" : 				{
					"destination" : [ "obj-14", 0 ],
					"source" : [ "obj-34", 0 ]
				}

			}
, 			{
				"patchline" : 				{
					"destination" : [ "obj-8", 0 ],
					"source" : [ "obj-38", 0 ]
				}

			}
, 			{
				"patchline" : 				{
					"destination" : [ "obj-9", 0 ],
					"source" : [ "obj-6", 0 ]
				}

			}
, 			{
				"patchline" : 				{
					"destination" : [ "obj-1", 0 ],
					"order" : 2,
					"source" : [ "obj-60", 0 ]
				}

			}
, 			{
				"patchline" : 				{
					"destination" : [ "obj-14", 0 ],
					"order" : 0,
					"source" : [ "obj-60", 0 ]
				}

			}
, 			{
				"patchline" : 				{
					"destination" : [ "obj-15", 0 ],
					"order" : 1,
					"source" : [ "obj-60", 0 ]
				}

			}
, 			{
				"patchline" : 				{
					"destination" : [ "obj-3", 0 ],
					"source" : [ "obj-60", 1 ]
				}

			}
, 			{
				"patchline" : 				{
					"destination" : [ "obj-4", 0 ],
					"order" : 3,
					"source" : [ "obj-60", 0 ]
				}

			}
, 			{
				"patchline" : 				{
					"destination" : [ "obj-5", 0 ],
					"source" : [ "obj-60", 2 ]
				}

			}
, 			{
				"patchline" : 				{
					"destination" : [ "obj-65", 0 ],
					"source" : [ "obj-60", 3 ]
				}

			}
, 			{
				"patchline" : 				{
					"destination" : [ "obj-14", 1 ],
					"source" : [ "obj-7", 0 ]
				}

			}
, 			{
				"patchline" : 				{
					"destination" : [ "obj-4", 0 ],
					"source" : [ "obj-8", 0 ]
				}

			}
, 			{
				"patchline" : 				{
					"destination" : [ "obj-60", 0 ],
					"source" : [ "obj-8", 5 ]
				}

			}
, 			{
				"patchline" : 				{
					"destination" : [ "obj-60", 0 ],
					"source" : [ "obj-8", 4 ]
				}

			}
, 			{
				"patchline" : 				{
					"destination" : [ "obj-60", 0 ],
					"source" : [ "obj-8", 3 ]
				}

			}
, 			{
				"patchline" : 				{
					"destination" : [ "obj-60", 0 ],
					"source" : [ "obj-8", 2 ]
				}

			}
, 			{
				"patchline" : 				{
					"destination" : [ "obj-60", 0 ],
					"source" : [ "obj-8", 1 ]
				}

			}
, 			{
				"patchline" : 				{
					"destination" : [ "obj-4", 1 ],
					"source" : [ "obj-9", 0 ]
				}

			}
 ],
		"bgcolor" : [ 0.356862745098039, 0.356862745098039, 0.356862745098039, 1.0 ],
		"editing_bgcolor" : [ 0.356862745098039, 0.356862745098039, 0.356862745098039, 1.0 ]
	}

}
