{
	"patcher" : 	{
		"fileversion" : 1,
		"appversion" : 		{
			"major" : 8,
			"minor" : 6,
			"revision" : 0,
			"architecture" : "x64",
			"modernui" : 1
		}
,
		"classnamespace" : "box",
		"openrect" : [ 50.0, 70.0, 1260.0, 700.0 ],
		"bglocked" : 1,
		"openinpresentation" : 0,
		"default_fontsize" : 12.0,
		"default_fontface" : 0,
		"default_fontname" : "Arial",
		"gridonopen" : 1,
		"gridsize" : [ 15.0, 15.0 ],
		"gridsnaponopen" : 1,
		"objectsnaponopen" : 1,
		"statusbarvisible" : 2,
		"toolbarvisible" : 1,
		"lefttoolbarpinned" : 0,
		"toptoolbarpinned" : 0,
		"righttoolbarpinned" : 0,
		"bottomtoolbarpinned" : 0,
		"toolbars_unpinned_last_save" : 0,
		"tallnewobj" : 0,
		"boxanimatetime" : 200,
		"enablehscroll" : 1,
		"enablevscroll" : 1,
		"devicewidth" : 0.0,
		"description" : "",
		"digest" : "",
		"tags" : "",
		"style" : "",
		"subpatcher_template" : "",
		"assistshowspatchername" : 0,
		"boxes" : [ 			{
				"box" : 				{
					"activelinecolor" : [ 0.792156862745098, 0.792156862745098, 0.031372549019608, 1.0 ],
					"id" : "obj-14",
					"maxclass" : "live.scope~",
					"numinlets" : 2,
					"numoutlets" : 1,
					"outlettype" : [ "bang" ],
					"patching_rect" : [ 132.0, 215.0, 53.0, 16.0 ],
					"range" : [ -0.1, 1.1 ]
				}

			}
, 			{
				"box" : 				{
					"id" : "obj-9",
					"maxclass" : "message",
					"numinlets" : 2,
					"numoutlets" : 1,
					"outlettype" : [ "" ],
					"patching_rect" : [ 177.0, 658.0, 50.0, 22.0 ],
					"text" : "56. 0."
				}

			}
, 			{
				"box" : 				{
					"id" : "obj-64",
					"maxclass" : "toggle",
					"numinlets" : 1,
					"numoutlets" : 1,
					"outlettype" : [ "int" ],
					"parameter_enable" : 0,
					"patching_rect" : [ 30.0, 135.0, 24.0, 24.0 ]
				}

			}
, 			{
				"box" : 				{
					"id" : "obj-62",
					"maxclass" : "comment",
					"numinlets" : 1,
					"numoutlets" : 0,
					"patching_rect" : [ 223.0, 320.0, 107.0, 20.0 ],
					"text" : "scale"
				}

			}
, 			{
				"box" : 				{
					"active1" : [ 0.792156862745098, 0.792156862745098, 0.031372549019608, 1.0 ],
					"id" : "obj-59",
					"maxclass" : "preset",
					"numinlets" : 1,
					"numoutlets" : 5,
					"outlettype" : [ "preset", "int", "preset", "int", "" ],
					"patching_rect" : [ 899.333331108093262, 507.5, 76.416670918464661, 50.16666116721251 ],
					"pattrstorage" : "rtt_ex_transpose"
				}

			}
, 			{
				"box" : 				{
					"id" : "obj-60",
					"maxclass" : "newobj",
					"numinlets" : 1,
					"numoutlets" : 4,
					"outlettype" : [ "", "", "", "" ],
					"patching_rect" : [ 836.333331108093262, 503.249995183978626, 56.0, 22.0 ],
					"restore" : 					{
						"clock/bpm" : [ "bpm", 90.0 ],
						"rprob/probabilities" : [ 0.189655172413793 ],
						"scala/scale" : [ "12tet_chromatic.scl" ]
					}
,
					"text" : "autopattr",
					"varname" : "u914009899"
				}

			}
, 			{
				"box" : 				{
					"autorestore" : "rtt.ex.transpose.json",
					"id" : "obj-2666",
					"maxclass" : "newobj",
					"numinlets" : 1,
					"numoutlets" : 1,
					"outlettype" : [ "" ],
					"patching_rect" : [ 736.0, 561.0, 302.0, 22.0 ],
					"saved_object_attributes" : 					{
						"client_rect" : [ 1057, 87, 1440, 449 ],
						"parameter_enable" : 0,
						"parameter_mappable" : 0,
						"storage_rect" : [ 583, 87, 1173, 348 ]
					}
,
					"text" : "pattrstorage @autorestore 1 @savemode 2 @greedy 1",
					"varname" : "rtt_ex_transpose"
				}

			}
, 			{
				"box" : 				{
					"bgmode" : 0,
					"border" : 0,
					"clickthrough" : 0,
					"enablehscroll" : 0,
					"enablevscroll" : 0,
					"id" : "obj-2691",
					"lockeddragscroll" : 0,
					"lockedsize" : 0,
					"maxclass" : "bpatcher",
					"name" : "rtt.xtra.pattrhelper.maxpat",
					"numinlets" : 2,
					"numoutlets" : 3,
					"offset" : [ 0.0, 0.0 ],
					"outlettype" : [ "", "int", "bang" ],
					"patching_rect" : [ 731.0, 500.791665291803156, 253.0, 94.291665291803156 ],
					"varname" : "rtt.xtra.pattrhelper",
					"viewvisibility" : 1
				}

			}
, 			{
				"box" : 				{
					"fontface" : 0,
					"fontname" : "Arial",
					"fontsize" : 12.0,
					"id" : "obj-58",
					"maxclass" : "number~",
					"mode" : 2,
					"numinlets" : 2,
					"numoutlets" : 2,
					"outlettype" : [ "signal", "float" ],
					"patching_rect" : [ 722.0, 324.0, 56.0, 22.0 ],
					"sig" : 0.0
				}

			}
, 			{
				"box" : 				{
					"fontface" : 0,
					"fontname" : "Arial",
					"fontsize" : 12.0,
					"id" : "obj-55",
					"maxclass" : "number~",
					"mode" : 2,
					"numinlets" : 2,
					"numoutlets" : 2,
					"outlettype" : [ "signal", "float" ],
					"patching_rect" : [ 1010.0, 319.0, 56.0, 22.0 ],
					"sig" : 0.0
				}

			}
, 			{
				"box" : 				{
					"id" : "obj-54",
					"maxclass" : "comment",
					"numinlets" : 1,
					"numoutlets" : 0,
					"patching_rect" : [ 1015.5, 235.0, 150.0, 20.0 ],
					"text" : "retrig rate"
				}

			}
, 			{
				"box" : 				{
					"id" : "obj-53",
					"maxclass" : "comment",
					"numinlets" : 1,
					"numoutlets" : 0,
					"patching_rect" : [ 751.5, 235.0, 150.0, 20.0 ],
					"text" : "velocity"
				}

			}
, 			{
				"box" : 				{
					"id" : "obj-52",
					"maxclass" : "comment",
					"numinlets" : 1,
					"numoutlets" : 0,
					"patching_rect" : [ 487.0, 235.0, 150.0, 20.0 ],
					"text" : "transposition"
				}

			}
, 			{
				"box" : 				{
					"id" : "obj-51",
					"maxclass" : "comment",
					"numinlets" : 1,
					"numoutlets" : 0,
					"patching_rect" : [ 217.0, 235.0, 150.0, 20.0 ],
					"text" : "melody"
				}

			}
, 			{
				"box" : 				{
					"id" : "obj-50",
					"linecount" : 2,
					"maxclass" : "comment",
					"numinlets" : 1,
					"numoutlets" : 0,
					"patching_rect" : [ 467.25, 401.5, 62.0, 33.0 ],
					"text" : "likelihood of retrig"
				}

			}
, 			{
				"box" : 				{
					"fontface" : 0,
					"fontname" : "Arial",
					"fontsize" : 12.0,
					"id" : "obj-48",
					"maxclass" : "number~",
					"mode" : 2,
					"numinlets" : 2,
					"numoutlets" : 2,
					"outlettype" : [ "signal", "float" ],
					"patching_rect" : [ 51.399999999999999, 290.0, 56.0, 22.0 ],
					"sig" : 0.0
				}

			}
, 			{
				"box" : 				{
					"id" : "obj-44",
					"maxclass" : "newobj",
					"numinlets" : 2,
					"numoutlets" : 1,
					"outlettype" : [ "signal" ],
					"patching_rect" : [ 958.0, 319.0, 48.0, 22.0 ],
					"text" : "pow~ 2"
				}

			}
, 			{
				"box" : 				{
					"bgmode" : 0,
					"border" : 0,
					"clickthrough" : 0,
					"enablehscroll" : 0,
					"enablevscroll" : 0,
					"id" : "obj-39",
					"lockeddragscroll" : 0,
					"lockedsize" : 0,
					"maxclass" : "bpatcher",
					"name" : "rtt.sequence.ui.maxpat",
					"numinlets" : 1,
					"numoutlets" : 2,
					"offset" : [ 0.0, 0.0 ],
					"outlettype" : [ "", "" ],
					"patching_rect" : [ 977.0, 137.0, 227.0, 94.0 ],
					"presentation" : 1,
					"presentation_rect" : [ 951.0, 78.0, 226.0, 80.0 ],
					"varname" : "sequence[3]",
					"viewvisibility" : 1
				}

			}
, 			{
				"box" : 				{
					"color" : [ 0.792156862745098, 0.792156862745098, 0.031372549019608, 1.0 ],
					"id" : "obj-40",
					"maxclass" : "newobj",
					"numinlets" : 2,
					"numoutlets" : 2,
					"outlettype" : [ "signal", "" ],
					"patching_rect" : [ 958.0, 290.0, 246.0, 22.0 ],
					"saved_object_attributes" : 					{
						"parameter_enable" : 0,
						"parameter_mappable" : 0
					}
,
					"text" : "rtt.sequence~"
				}

			}
, 			{
				"box" : 				{
					"id" : "obj-38",
					"maxclass" : "newobj",
					"numinlets" : 2,
					"numoutlets" : 1,
					"outlettype" : [ "signal" ],
					"patching_rect" : [ 194.0, 578.0, 52.5, 22.0 ],
					"text" : "*~"
				}

			}
, 			{
				"box" : 				{
					"id" : "obj-37",
					"maxclass" : "newobj",
					"numinlets" : 6,
					"numoutlets" : 1,
					"outlettype" : [ "signal" ],
					"patching_rect" : [ 227.5, 533.833328604698181, 107.0, 22.0 ],
					"text" : "scale~ 0. 1. 1. 0.3."
				}

			}
, 			{
				"box" : 				{
					"color" : [ 0.792156862745098, 0.792156862745098, 0.031372549019608, 1.0 ],
					"id" : "obj-135",
					"maxclass" : "newobj",
					"numinlets" : 6,
					"numoutlets" : 5,
					"outlettype" : [ "signal", "signal", "signal", "signal", "" ],
					"patching_rect" : [ 59.799999999999997, 502.333323121070862, 268.449999999999989, 22.0 ],
					"saved_object_attributes" : 					{
						"parameter_enable" : 0,
						"parameter_mappable" : 0
					}
,
					"text" : "rtt.retrig~"
				}

			}
, 			{
				"box" : 				{
					"id" : "obj-11",
					"maxclass" : "multislider",
					"numinlets" : 1,
					"numoutlets" : 2,
					"outlettype" : [ "", "" ],
					"parameter_enable" : 0,
					"patching_rect" : [ 437.25, 389.0, 28.0, 58.0 ],
					"setminmax" : [ 0.0, 1.0 ],
					"slidercolor" : [ 0.792156862745098, 0.792156862745098, 0.031372549019608, 1.0 ],
					"varname" : "rprob/probabilities"
				}

			}
, 			{
				"box" : 				{
					"color" : [ 0.792156862745098, 0.792156862745098, 0.031372549019608, 1.0 ],
					"id" : "obj-30",
					"maxclass" : "newobj",
					"numinlets" : 4,
					"numoutlets" : 2,
					"outlettype" : [ "signal", "signal" ],
					"patching_rect" : [ 309.25, 454.0, 147.0, 22.0 ],
					"saved_object_attributes" : 					{
						"parameter_enable" : 0,
						"parameter_mappable" : 0
					}
,
					"text" : "rtt.rprob~ @output gate"
				}

			}
, 			{
				"box" : 				{
					"fontface" : 0,
					"fontname" : "Arial",
					"fontsize" : 12.0,
					"id" : "obj-26",
					"maxclass" : "number~",
					"mode" : 2,
					"numinlets" : 2,
					"numoutlets" : 2,
					"outlettype" : [ "signal", "float" ],
					"patching_rect" : [ 247.0, 412.0, 56.0, 22.0 ],
					"sig" : 0.0
				}

			}
, 			{
				"box" : 				{
					"bgmode" : 0,
					"border" : 0,
					"clickthrough" : 0,
					"enablehscroll" : 0,
					"enablevscroll" : 0,
					"id" : "obj-22",
					"lockeddragscroll" : 0,
					"lockedsize" : 0,
					"maxclass" : "bpatcher",
					"name" : "rtt.sequence.ui.maxpat",
					"numinlets" : 1,
					"numoutlets" : 2,
					"offset" : [ 0.0, 0.0 ],
					"outlettype" : [ "", "" ],
					"patching_rect" : [ 713.0, 137.0, 227.0, 94.0 ],
					"varname" : "sequence[2]",
					"viewvisibility" : 1
				}

			}
, 			{
				"box" : 				{
					"color" : [ 0.792156862745098, 0.792156862745098, 0.031372549019608, 1.0 ],
					"id" : "obj-23",
					"maxclass" : "newobj",
					"numinlets" : 2,
					"numoutlets" : 2,
					"outlettype" : [ "signal", "" ],
					"patching_rect" : [ 694.0, 290.0, 246.0, 22.0 ],
					"saved_object_attributes" : 					{
						"parameter_enable" : 0,
						"parameter_mappable" : 0
					}
,
					"text" : "rtt.sequence~"
				}

			}
, 			{
				"box" : 				{
					"id" : "obj-87",
					"maxclass" : "newobj",
					"numinlets" : 1,
					"numoutlets" : 0,
					"patching_rect" : [ 248.0, 657.000055259994497, 47.0, 22.0 ],
					"text" : "midiout"
				}

			}
, 			{
				"box" : 				{
					"color" : [ 0.792156862745098, 0.792156862745098, 0.031372549019608, 1.0 ],
					"id" : "obj-92",
					"maxclass" : "newobj",
					"numinlets" : 5,
					"numoutlets" : 3,
					"outlettype" : [ "", "", "" ],
					"patching_rect" : [ 176.0, 625.000031894973745, 91.0, 22.0 ],
					"saved_object_attributes" : 					{
						"parameter_enable" : 0,
						"parameter_mappable" : 0
					}
,
					"text" : "rtt.makenote~"
				}

			}
, 			{
				"box" : 				{
					"autopopulate" : 1,
					"bgcolor" : [ 0.764705882352941, 0.764705882352941, 0.764705882352941, 1.0 ],
					"bgfillcolor_angle" : 270.0,
					"bgfillcolor_autogradient" : 0.0,
					"bgfillcolor_color" : [ 0.764705882352941, 0.764705882352941, 0.764705882352941, 1.0 ],
					"bgfillcolor_color1" : [ 0.301961, 0.301961, 0.301961, 1.0 ],
					"bgfillcolor_color2" : [ 0.2, 0.2, 0.2, 1.0 ],
					"bgfillcolor_proportion" : 0.5,
					"bgfillcolor_type" : "color",
					"fontname" : "Ableton Sans Medium",
					"fontsize" : 9.5,
					"id" : "obj-2627",
					"items" : [ "12tet_chromatic.scl", ",", "12tet_diminished.scl", ",", "12tet_dorian.scl", ",", "12tet_locrian.scl", ",", "12tet_lydian.scl", ",", "12tet_major.scl", ",", "12tet_minor.scl", ",", "12tet_mixolydian.scl", ",", "12tet_phrygian.scl", ",", "al-farabi_g10.scl", ",", "Balafon_6.scl", ",", "Balafon_7.scl", ",", "dudon_bhairav.scl", ",", "dudon_darbari.scl", ",", "hirajoshi.scl", ",", "indian.scl", ",", "iranian pentachord 7-limit.scl", ",", "iraq.scl", ",", "isfahan_5.scl", ",", "islamic.scl", ",", "italian.scl", ",", "mbira_chilimba.scl", ",", "mbira_kalimba.scl", ",", "minor_blues.scl.scl.scl", ",", "pelog11.scl", ",", "pelog_me3.scl", ",", "persian-hr.scl", ",", "pipedum_13c.scl", ",", "ptolemy_idiat.scl", ",", "slendro.scl", ",", "slendro_dudon.scl", ",", "turkish.scl" ],
					"maxclass" : "umenu",
					"numinlets" : 1,
					"numoutlets" : 3,
					"outlettype" : [ "int", "", "" ],
					"parameter_enable" : 0,
					"patching_rect" : [ 223.0, 342.0, 97.0, 20.0 ],
					"pattrmode" : 1,
					"prefix" : "~/Documents/Max 8/Packages/seq/misc/scales/",
					"saved_attribute_attributes" : 					{
						"bgfillcolor" : 						{
							"expression" : "themecolor.live_control_text_bg"
						}
,
						"textcolor" : 						{
							"expression" : "themecolor.live_control_fg"
						}

					}
,
					"textcolor" : [ 0.0, 0.0, 0.0, 1.0 ],
					"varname" : "scala/scale"
				}

			}
, 			{
				"box" : 				{
					"color" : [ 0.792156862745098, 0.792156862745098, 0.031372549019608, 1.0 ],
					"id" : "obj-57",
					"maxclass" : "newobj",
					"numinlets" : 2,
					"numoutlets" : 3,
					"outlettype" : [ "signal", "signal", "signal" ],
					"patching_rect" : [ 176.0, 412.0, 66.0, 22.0 ],
					"saved_object_attributes" : 					{
						"parameter_enable" : 0,
						"parameter_mappable" : 0
					}
,
					"text" : "rtt.scala~"
				}

			}
, 			{
				"box" : 				{
					"color" : [ 0.792156862745098, 0.792156862745098, 0.031372549019608, 1.0 ],
					"id" : "obj-56",
					"maxclass" : "newobj",
					"numinlets" : 1,
					"numoutlets" : 2,
					"outlettype" : [ "", "" ],
					"patching_rect" : [ 223.0, 370.0, 97.0, 22.0 ],
					"text" : "rtt.scala.parser"
				}

			}
, 			{
				"box" : 				{
					"fontface" : 0,
					"fontname" : "Arial",
					"fontsize" : 12.0,
					"id" : "obj-8",
					"maxclass" : "number~",
					"mode" : 2,
					"numinlets" : 2,
					"numoutlets" : 2,
					"outlettype" : [ "signal", "float" ],
					"patching_rect" : [ 452.0, 319.0, 56.0, 22.0 ],
					"sig" : 0.0
				}

			}
, 			{
				"box" : 				{
					"fontface" : 0,
					"fontname" : "Arial",
					"fontsize" : 12.0,
					"id" : "obj-7",
					"maxclass" : "number~",
					"mode" : 2,
					"numinlets" : 2,
					"numoutlets" : 2,
					"outlettype" : [ "signal", "float" ],
					"patching_rect" : [ 111.0, 290.0, 56.0, 22.0 ],
					"sig" : 0.0
				}

			}
, 			{
				"box" : 				{
					"id" : "obj-6",
					"maxclass" : "newobj",
					"numinlets" : 2,
					"numoutlets" : 3,
					"outlettype" : [ "signal", "signal", "" ],
					"patching_rect" : [ 111.0, 234.0, 78.0, 22.0 ],
					"saved_object_attributes" : 					{
						"parameter_enable" : 0,
						"parameter_mappable" : 0
					}
,
					"text" : "rtt.counter~"
				}

			}
, 			{
				"box" : 				{
					"fontface" : 0,
					"fontname" : "Arial",
					"fontsize" : 12.0,
					"id" : "obj-5",
					"maxclass" : "number~",
					"mode" : 2,
					"numinlets" : 2,
					"numoutlets" : 2,
					"outlettype" : [ "signal", "float" ],
					"patching_rect" : [ 117.0, 332.0, 56.0, 22.0 ],
					"sig" : 0.0
				}

			}
, 			{
				"box" : 				{
					"id" : "obj-4",
					"maxclass" : "newobj",
					"numinlets" : 1,
					"numoutlets" : 6,
					"outlettype" : [ "signal", "signal", "signal", "signal", "signal", "" ],
					"patching_rect" : [ 43.0, 234.0, 61.0, 22.0 ],
					"saved_object_attributes" : 					{
						"parameter_enable" : 0,
						"parameter_mappable" : 0
					}
,
					"text" : "rtt.loop~"
				}

			}
, 			{
				"box" : 				{
					"activelinecolor" : [ 0.792156862745098, 0.792156862745098, 0.031372549019608, 1.0 ],
					"id" : "obj-72",
					"maxclass" : "live.scope~",
					"numinlets" : 2,
					"numoutlets" : 1,
					"outlettype" : [ "bang" ],
					"patching_rect" : [ 132.0, 191.0, 53.0, 22.0 ],
					"range" : [ -0.1, 1.1 ]
				}

			}
, 			{
				"box" : 				{
					"color" : [ 0.792156862745098, 0.792156862745098, 0.031372549019608, 1.0 ],
					"id" : "obj-76",
					"maxclass" : "newobj",
					"numinlets" : 4,
					"numoutlets" : 2,
					"outlettype" : [ "signal", "signal" ],
					"patching_rect" : [ 30.0, 191.0, 100.0, 22.0 ],
					"saved_object_attributes" : 					{
						"parameter_enable" : 0,
						"parameter_mappable" : 0
					}
,
					"text" : "rtt.clock~"
				}

			}
, 			{
				"box" : 				{
					"attr" : "bpm",
					"id" : "obj-77",
					"maxclass" : "attrui",
					"numinlets" : 1,
					"numoutlets" : 1,
					"outlettype" : [ "" ],
					"parameter_enable" : 0,
					"patching_rect" : [ 89.5, 137.0, 89.0, 22.0 ],
					"text_width" : 52.0,
					"varname" : "clock/bpm"
				}

			}
, 			{
				"box" : 				{
					"attr" : "transportstate",
					"id" : "obj-79",
					"maxclass" : "attrui",
					"numinlets" : 1,
					"numoutlets" : 1,
					"outlettype" : [ "" ],
					"parameter_enable" : 0,
					"patching_rect" : [ 30.0, 161.0, 150.0, 22.0 ]
				}

			}
, 			{
				"box" : 				{
					"bgmode" : 0,
					"border" : 0,
					"clickthrough" : 0,
					"enablehscroll" : 0,
					"enablevscroll" : 0,
					"id" : "obj-1",
					"lockeddragscroll" : 0,
					"lockedsize" : 0,
					"maxclass" : "bpatcher",
					"name" : "rtt.sequence.ui.maxpat",
					"numinlets" : 1,
					"numoutlets" : 2,
					"offset" : [ 0.0, 0.0 ],
					"outlettype" : [ "", "" ],
					"patching_rect" : [ 452.0, 137.0, 227.0, 94.0 ],
					"varname" : "sequence[1]",
					"viewvisibility" : 1
				}

			}
, 			{
				"box" : 				{
					"color" : [ 0.792156862745098, 0.792156862745098, 0.031372549019608, 1.0 ],
					"id" : "obj-2",
					"maxclass" : "newobj",
					"numinlets" : 2,
					"numoutlets" : 2,
					"outlettype" : [ "signal", "" ],
					"patching_rect" : [ 433.0, 290.0, 246.0, 22.0 ],
					"saved_object_attributes" : 					{
						"parameter_enable" : 0,
						"parameter_mappable" : 0
					}
,
					"text" : "rtt.sequence~"
				}

			}
, 			{
				"box" : 				{
					"bgmode" : 0,
					"border" : 0,
					"clickthrough" : 0,
					"enablehscroll" : 0,
					"enablevscroll" : 0,
					"id" : "obj-156",
					"lockeddragscroll" : 0,
					"lockedsize" : 0,
					"maxclass" : "bpatcher",
					"name" : "rtt.sequence.ui.maxpat",
					"numinlets" : 1,
					"numoutlets" : 2,
					"offset" : [ 0.0, 0.0 ],
					"outlettype" : [ "", "" ],
					"patching_rect" : [ 195.0, 137.0, 227.0, 94.0 ],
					"presentation" : 1,
					"presentation_rect" : [ 1147.0, 1010.0, 226.0, 80.0 ],
					"varname" : "sequence",
					"viewvisibility" : 1
				}

			}
, 			{
				"box" : 				{
					"color" : [ 0.792156862745098, 0.792156862745098, 0.031372549019608, 1.0 ],
					"id" : "obj-66",
					"maxclass" : "newobj",
					"numinlets" : 2,
					"numoutlets" : 2,
					"outlettype" : [ "signal", "" ],
					"patching_rect" : [ 176.0, 290.0, 246.0, 22.0 ],
					"saved_object_attributes" : 					{
						"parameter_enable" : 0,
						"parameter_mappable" : 0
					}
,
					"text" : "rtt.sequence~"
				}

			}
, 			{
				"box" : 				{
					"attr" : "channel",
					"id" : "obj-65",
					"maxclass" : "attrui",
					"numinlets" : 1,
					"numoutlets" : 1,
					"outlettype" : [ "" ],
					"parameter_enable" : 0,
					"patching_rect" : [ 250.5, 578.0, 150.0, 22.0 ]
				}

			}
, 			{
				"box" : 				{
					"background" : 1,
					"bgmode" : 0,
					"border" : 0,
					"clickthrough" : 0,
					"enablehscroll" : 0,
					"enablevscroll" : 0,
					"id" : "obj-13",
					"lockeddragscroll" : 0,
					"lockedsize" : 0,
					"maxclass" : "bpatcher",
					"name" : "rtt.misc.philipmeyer.maxpat",
					"numinlets" : 0,
					"numoutlets" : 0,
					"offset" : [ 0.0, 0.0 ],
					"patching_rect" : [ 26.0, 632.0, 110.0, 18.0 ],
					"viewvisibility" : 1
				}

			}
, 			{
				"box" : 				{
					"background" : 1,
					"fontname" : "Lato",
					"fontsize" : 13.0,
					"id" : "obj-17",
					"linecount" : 3,
					"maxclass" : "comment",
					"numinlets" : 1,
					"numoutlets" : 0,
					"patching_rect" : [ 30.0, 67.0, 711.0, 53.0 ],
					"text" : "in this example, a melody driven by rtt.sequence~ runs at 16th notes relative to the main clock. there's also a sequence for transposition that advances on each cycle of the main clock. the result is a 40-step melody derived from only 13 sliders. additional rtt.sequence~ objects are also used here for velocity control and modulation of a rtt.retrig~'s subdivision."
				}

			}
, 			{
				"box" : 				{
					"background" : 1,
					"fontname" : "Lato",
					"fontsize" : 18.0,
					"id" : "obj-61",
					"maxclass" : "comment",
					"numinlets" : 1,
					"numoutlets" : 0,
					"patching_rect" : [ 96.0, 38.0, 255.0, 28.0 ],
					"text" : "Transposed Sequence"
				}

			}
, 			{
				"box" : 				{
					"background" : 1,
					"fontface" : 1,
					"fontname" : "Lato",
					"fontsize" : 36.0,
					"id" : "obj-16",
					"maxclass" : "comment",
					"numinlets" : 1,
					"numoutlets" : 0,
					"patching_rect" : [ 30.0, 15.0, 66.0, 50.0 ],
					"text" : "rtt"
				}

			}
 ],
		"lines" : [ 			{
				"patchline" : 				{
					"destination" : [ "obj-2", 1 ],
					"source" : [ "obj-1", 1 ]
				}

			}
, 			{
				"patchline" : 				{
					"destination" : [ "obj-2", 0 ],
					"source" : [ "obj-1", 0 ]
				}

			}
, 			{
				"patchline" : 				{
					"destination" : [ "obj-30", 3 ],
					"source" : [ "obj-11", 0 ]
				}

			}
, 			{
				"patchline" : 				{
					"destination" : [ "obj-37", 0 ],
					"source" : [ "obj-135", 2 ]
				}

			}
, 			{
				"patchline" : 				{
					"destination" : [ "obj-92", 4 ],
					"midpoints" : [ 69.299999999999997, 612.166677508022303, 257.5, 612.166677508022303 ],
					"source" : [ "obj-135", 0 ]
				}

			}
, 			{
				"patchline" : 				{
					"destination" : [ "obj-66", 1 ],
					"source" : [ "obj-156", 1 ]
				}

			}
, 			{
				"patchline" : 				{
					"destination" : [ "obj-66", 0 ],
					"source" : [ "obj-156", 0 ]
				}

			}
, 			{
				"patchline" : 				{
					"destination" : [ "obj-57", 0 ],
					"midpoints" : [ 442.5, 399.5, 185.5, 399.5 ],
					"order" : 1,
					"source" : [ "obj-2", 0 ]
				}

			}
, 			{
				"patchline" : 				{
					"destination" : [ "obj-8", 0 ],
					"order" : 0,
					"source" : [ "obj-2", 0 ]
				}

			}
, 			{
				"patchline" : 				{
					"destination" : [ "obj-23", 1 ],
					"source" : [ "obj-22", 1 ]
				}

			}
, 			{
				"patchline" : 				{
					"destination" : [ "obj-23", 0 ],
					"source" : [ "obj-22", 0 ]
				}

			}
, 			{
				"patchline" : 				{
					"destination" : [ "obj-38", 0 ],
					"midpoints" : [ 703.5, 565.916664859489401, 203.5, 565.916664859489401 ],
					"order" : 1,
					"source" : [ "obj-23", 0 ]
				}

			}
, 			{
				"patchline" : 				{
					"destination" : [ "obj-58", 0 ],
					"order" : 0,
					"source" : [ "obj-23", 0 ]
				}

			}
, 			{
				"patchline" : 				{
					"destination" : [ "obj-56", 0 ],
					"source" : [ "obj-2627", 1 ]
				}

			}
, 			{
				"patchline" : 				{
					"destination" : [ "obj-2691", 1 ],
					"midpoints" : [ 745.5, 599.083330583606312, 1016.0, 599.083330583606312, 1016.0, 485.5, 974.5, 485.5 ],
					"source" : [ "obj-2666", 0 ]
				}

			}
, 			{
				"patchline" : 				{
					"destination" : [ "obj-2666", 0 ],
					"source" : [ "obj-2691", 0 ]
				}

			}
, 			{
				"patchline" : 				{
					"destination" : [ "obj-59", 0 ],
					"source" : [ "obj-2691", 1 ]
				}

			}
, 			{
				"patchline" : 				{
					"destination" : [ "obj-135", 5 ],
					"source" : [ "obj-30", 0 ]
				}

			}
, 			{
				"patchline" : 				{
					"destination" : [ "obj-38", 1 ],
					"source" : [ "obj-37", 0 ]
				}

			}
, 			{
				"patchline" : 				{
					"destination" : [ "obj-92", 1 ],
					"source" : [ "obj-38", 0 ]
				}

			}
, 			{
				"patchline" : 				{
					"destination" : [ "obj-40", 1 ],
					"source" : [ "obj-39", 1 ]
				}

			}
, 			{
				"patchline" : 				{
					"destination" : [ "obj-40", 0 ],
					"source" : [ "obj-39", 0 ]
				}

			}
, 			{
				"patchline" : 				{
					"destination" : [ "obj-135", 0 ],
					"order" : 1,
					"source" : [ "obj-4", 2 ]
				}

			}
, 			{
				"patchline" : 				{
					"destination" : [ "obj-23", 0 ],
					"midpoints" : [ 60.899999999999999, 278.916664859489458, 703.5, 278.916664859489458 ],
					"order" : 0,
					"source" : [ "obj-4", 1 ]
				}

			}
, 			{
				"patchline" : 				{
					"destination" : [ "obj-30", 0 ],
					"midpoints" : [ 69.299999999999997, 441.5, 318.75, 441.5 ],
					"order" : 0,
					"source" : [ "obj-4", 2 ]
				}

			}
, 			{
				"patchline" : 				{
					"destination" : [ "obj-48", 0 ],
					"order" : 2,
					"source" : [ "obj-4", 1 ]
				}

			}
, 			{
				"patchline" : 				{
					"destination" : [ "obj-66", 0 ],
					"midpoints" : [ 60.899999999999999, 278.5, 185.5, 278.5 ],
					"order" : 1,
					"source" : [ "obj-4", 1 ]
				}

			}
, 			{
				"patchline" : 				{
					"destination" : [ "obj-44", 0 ],
					"source" : [ "obj-40", 0 ]
				}

			}
, 			{
				"patchline" : 				{
					"destination" : [ "obj-135", 1 ],
					"midpoints" : [ 967.5, 490.166661560535431, 119.189999999999998, 490.166661560535431 ],
					"order" : 1,
					"source" : [ "obj-44", 0 ]
				}

			}
, 			{
				"patchline" : 				{
					"destination" : [ "obj-55", 0 ],
					"order" : 0,
					"source" : [ "obj-44", 0 ]
				}

			}
, 			{
				"patchline" : 				{
					"destination" : [ "obj-57", 1 ],
					"source" : [ "obj-56", 0 ]
				}

			}
, 			{
				"patchline" : 				{
					"destination" : [ "obj-26", 0 ],
					"order" : 0,
					"source" : [ "obj-57", 0 ]
				}

			}
, 			{
				"patchline" : 				{
					"destination" : [ "obj-92", 0 ],
					"order" : 1,
					"source" : [ "obj-57", 0 ]
				}

			}
, 			{
				"patchline" : 				{
					"destination" : [ "obj-2", 0 ],
					"midpoints" : [ 120.5, 262.5, 442.5, 262.5 ],
					"order" : 1,
					"source" : [ "obj-6", 0 ]
				}

			}
, 			{
				"patchline" : 				{
					"destination" : [ "obj-40", 0 ],
					"midpoints" : [ 120.5, 262.916664859489458, 967.5, 262.916664859489458 ],
					"order" : 0,
					"source" : [ "obj-6", 0 ]
				}

			}
, 			{
				"patchline" : 				{
					"destination" : [ "obj-7", 0 ],
					"order" : 2,
					"source" : [ "obj-6", 0 ]
				}

			}
, 			{
				"patchline" : 				{
					"destination" : [ "obj-79", 0 ],
					"source" : [ "obj-64", 0 ]
				}

			}
, 			{
				"patchline" : 				{
					"destination" : [ "obj-92", 0 ],
					"source" : [ "obj-65", 0 ]
				}

			}
, 			{
				"patchline" : 				{
					"destination" : [ "obj-5", 0 ],
					"order" : 1,
					"source" : [ "obj-66", 0 ]
				}

			}
, 			{
				"patchline" : 				{
					"destination" : [ "obj-57", 0 ],
					"order" : 0,
					"source" : [ "obj-66", 0 ]
				}

			}
, 			{
				"patchline" : 				{
					"destination" : [ "obj-135", 3 ],
					"midpoints" : [ 39.5, 468.166661560535431, 218.96999999999997, 468.166661560535431 ],
					"order" : 0,
					"source" : [ "obj-76", 0 ]
				}

			}
, 			{
				"patchline" : 				{
					"destination" : [ "obj-14", 0 ],
					"order" : 0,
					"source" : [ "obj-76", 1 ]
				}

			}
, 			{
				"patchline" : 				{
					"destination" : [ "obj-4", 0 ],
					"order" : 2,
					"source" : [ "obj-76", 0 ]
				}

			}
, 			{
				"patchline" : 				{
					"destination" : [ "obj-6", 0 ],
					"order" : 1,
					"source" : [ "obj-76", 1 ]
				}

			}
, 			{
				"patchline" : 				{
					"destination" : [ "obj-72", 0 ],
					"order" : 1,
					"source" : [ "obj-76", 0 ]
				}

			}
, 			{
				"patchline" : 				{
					"destination" : [ "obj-76", 0 ],
					"source" : [ "obj-77", 0 ]
				}

			}
, 			{
				"patchline" : 				{
					"destination" : [ "obj-76", 0 ],
					"source" : [ "obj-79", 0 ]
				}

			}
, 			{
				"patchline" : 				{
					"destination" : [ "obj-87", 0 ],
					"source" : [ "obj-92", 2 ]
				}

			}
, 			{
				"patchline" : 				{
					"destination" : [ "obj-9", 1 ],
					"source" : [ "obj-92", 0 ]
				}

			}
 ],
		"parameters" : 		{
			"obj-156::obj-10" : [ "live.numbox[31]", "live.numbox", 0 ],
			"obj-156::obj-14" : [ "live.text[7]", "live.text", 0 ],
			"obj-156::obj-30" : [ "live.numbox[46]", "live.numbox", 0 ],
			"obj-156::obj-31" : [ "live.numbox[38]", "live.numbox", 0 ],
			"obj-156::obj-32" : [ "live.numbox[37]", "live.numbox", 0 ],
			"obj-156::obj-33" : [ "live.numbox[32]", "live.numbox", 0 ],
			"obj-1::obj-10" : [ "live.numbox[41]", "live.numbox", 0 ],
			"obj-1::obj-14" : [ "live.text[9]", "live.text", 0 ],
			"obj-1::obj-30" : [ "live.numbox[39]", "live.numbox", 0 ],
			"obj-1::obj-31" : [ "live.numbox[47]", "live.numbox", 0 ],
			"obj-1::obj-32" : [ "live.numbox[42]", "live.numbox", 0 ],
			"obj-1::obj-33" : [ "live.numbox[26]", "live.numbox", 0 ],
			"obj-22::obj-10" : [ "live.numbox[27]", "live.numbox", 0 ],
			"obj-22::obj-14" : [ "live.text[10]", "live.text", 0 ],
			"obj-22::obj-30" : [ "live.numbox[28]", "live.numbox", 0 ],
			"obj-22::obj-31" : [ "live.numbox[48]", "live.numbox", 0 ],
			"obj-22::obj-32" : [ "live.numbox[40]", "live.numbox", 0 ],
			"obj-22::obj-33" : [ "live.numbox[43]", "live.numbox", 0 ],
			"obj-2691::obj-12::obj-10" : [ "pastebang", "pastebang", 0 ],
			"obj-39::obj-10" : [ "live.numbox[50]", "live.numbox", 0 ],
			"obj-39::obj-14" : [ "live.text[8]", "live.text", 0 ],
			"obj-39::obj-30" : [ "live.numbox[44]", "live.numbox", 0 ],
			"obj-39::obj-31" : [ "live.numbox[29]", "live.numbox", 0 ],
			"obj-39::obj-32" : [ "live.numbox[49]", "live.numbox", 0 ],
			"obj-39::obj-33" : [ "live.numbox[30]", "live.numbox", 0 ],
			"parameterbanks" : 			{
				"0" : 				{
					"index" : 0,
					"name" : "",
					"parameters" : [ "-", "-", "-", "-", "-", "-", "-", "-" ]
				}

			}
,
			"parameter_overrides" : 			{
				"obj-156::obj-10" : 				{
					"parameter_longname" : "live.numbox[31]"
				}
,
				"obj-156::obj-14" : 				{
					"parameter_longname" : "live.text[7]"
				}
,
				"obj-156::obj-30" : 				{
					"parameter_longname" : "live.numbox[46]"
				}
,
				"obj-156::obj-31" : 				{
					"parameter_longname" : "live.numbox[38]"
				}
,
				"obj-156::obj-32" : 				{
					"parameter_longname" : "live.numbox[37]"
				}
,
				"obj-156::obj-33" : 				{
					"parameter_longname" : "live.numbox[32]"
				}
,
				"obj-1::obj-10" : 				{
					"parameter_longname" : "live.numbox[41]"
				}
,
				"obj-1::obj-14" : 				{
					"parameter_longname" : "live.text[9]"
				}
,
				"obj-1::obj-30" : 				{
					"parameter_longname" : "live.numbox[39]"
				}
,
				"obj-1::obj-31" : 				{
					"parameter_longname" : "live.numbox[47]"
				}
,
				"obj-1::obj-32" : 				{
					"parameter_longname" : "live.numbox[42]"
				}
,
				"obj-1::obj-33" : 				{
					"parameter_longname" : "live.numbox[26]"
				}
,
				"obj-22::obj-10" : 				{
					"parameter_longname" : "live.numbox[27]"
				}
,
				"obj-22::obj-14" : 				{
					"parameter_longname" : "live.text[10]"
				}
,
				"obj-22::obj-30" : 				{
					"parameter_longname" : "live.numbox[28]"
				}
,
				"obj-22::obj-31" : 				{
					"parameter_longname" : "live.numbox[48]"
				}
,
				"obj-22::obj-32" : 				{
					"parameter_longname" : "live.numbox[40]"
				}
,
				"obj-22::obj-33" : 				{
					"parameter_longname" : "live.numbox[43]"
				}
,
				"obj-39::obj-10" : 				{
					"parameter_longname" : "live.numbox[50]"
				}
,
				"obj-39::obj-14" : 				{
					"parameter_longname" : "live.text[8]"
				}
,
				"obj-39::obj-30" : 				{
					"parameter_longname" : "live.numbox[44]"
				}
,
				"obj-39::obj-31" : 				{
					"parameter_longname" : "live.numbox[29]"
				}
,
				"obj-39::obj-32" : 				{
					"parameter_longname" : "live.numbox[49]"
				}
,
				"obj-39::obj-33" : 				{
					"parameter_longname" : "live.numbox[30]"
				}

			}
,
			"inherited_shortname" : 1
		}
,
		"dependency_cache" : [ 			{
				"name" : "rtt.clock~.mxo",
				"type" : "iLaX"
			}
, 			{
				"name" : "rtt.counter~.mxo",
				"type" : "iLaX"
			}
, 			{
				"name" : "rtt.ex.transpose.json",
				"bootpath" : "~/Documents/Max 8/Packages/seq/misc/pattrstorage",
				"patcherrelativepath" : "../misc/pattrstorage",
				"type" : "JSON",
				"implicit" : 1
			}
, 			{
				"name" : "rtt.getpatchname.js",
				"bootpath" : "~/Documents/Max 8/Packages/seq/javascript",
				"patcherrelativepath" : "../javascript",
				"type" : "TEXT",
				"implicit" : 1
			}
, 			{
				"name" : "rtt.loop~.mxo",
				"type" : "iLaX"
			}
, 			{
				"name" : "rtt.makenote~.mxo",
				"type" : "iLaX"
			}
, 			{
				"name" : "rtt.misc.philipmeyer.maxpat",
				"bootpath" : "~/Documents/Max 8/Packages/seq/misc",
				"patcherrelativepath" : "../misc",
				"type" : "JSON",
				"implicit" : 1
			}
, 			{
				"name" : "rtt.retrig~.mxo",
				"type" : "iLaX"
			}
, 			{
				"name" : "rtt.rprob~.mxo",
				"type" : "iLaX"
			}
, 			{
				"name" : "rtt.scala.parser.maxpat",
				"bootpath" : "~/Documents/Max 8/Packages/seq/patchers/modules/scala",
				"patcherrelativepath" : "../patchers/modules/scala",
				"type" : "JSON",
				"implicit" : 1
			}
, 			{
				"name" : "rtt.scala~.mxo",
				"type" : "iLaX"
			}
, 			{
				"name" : "rtt.sequence.ui.maxpat",
				"bootpath" : "~/Documents/Max 8/Packages/seq/patchers/modules/sequence",
				"patcherrelativepath" : "../patchers/modules/sequence",
				"type" : "JSON",
				"implicit" : 1
			}
, 			{
				"name" : "rtt.sequence~.mxo",
				"type" : "iLaX"
			}
, 			{
				"name" : "rtt.xtra.pattrhelper.maxpat",
				"bootpath" : "~/Documents/Max 8/Packages/seq/extras/Rhythm and Time Toolkit",
				"patcherrelativepath" : "../extras/Rhythm and Time Toolkit",
				"type" : "JSON",
				"implicit" : 1
			}
 ],
		"autosave" : 0
	}

}
