{
	"patcher" : 	{
		"fileversion" : 1,
		"appversion" : 		{
			"major" : 8,
			"minor" : 5,
			"revision" : 4,
			"architecture" : "x64",
			"modernui" : 1
		}
,
		"classnamespace" : "box",
		"rect" : [ 1347.0, 242.0, 740.0, 602.0 ],
		"bglocked" : 1,
		"openinpresentation" : 0,
		"default_fontsize" : 12.0,
		"default_fontface" : 0,
		"default_fontname" : "Arial",
		"gridonopen" : 1,
		"gridsize" : [ 15.0, 15.0 ],
		"gridsnaponopen" : 1,
		"objectsnaponopen" : 1,
		"statusbarvisible" : 2,
		"toolbarvisible" : 1,
		"lefttoolbarpinned" : 0,
		"toptoolbarpinned" : 0,
		"righttoolbarpinned" : 0,
		"bottomtoolbarpinned" : 0,
		"toolbars_unpinned_last_save" : 0,
		"tallnewobj" : 0,
		"boxanimatetime" : 200,
		"enablehscroll" : 1,
		"enablevscroll" : 1,
		"devicewidth" : 0.0,
		"description" : "",
		"digest" : "",
		"tags" : "",
		"style" : "",
		"subpatcher_template" : "",
		"assistshowspatchername" : 0,
		"boxes" : [ 			{
				"box" : 				{
					"id" : "obj-40",
					"local" : 1,
					"maxclass" : "ezdac~",
					"numinlets" : 2,
					"numoutlets" : 0,
					"patching_rect" : [ 313.0, 112.0, 25.0, 25.0 ],
					"prototypename" : "helpfile"
				}

			}
, 			{
				"box" : 				{
					"id" : "obj-42",
					"maxclass" : "newobj",
					"numinlets" : 1,
					"numoutlets" : 0,
					"patching_rect" : [ 205.099999999999994, 550.0, 47.0, 22.0 ],
					"text" : "midiout"
				}

			}
, 			{
				"box" : 				{
					"color" : [ 0.792156862745098, 0.792156862745098, 0.031372549019608, 1.0 ],
					"id" : "obj-34",
					"maxclass" : "newobj",
					"numinlets" : 5,
					"numoutlets" : 3,
					"outlettype" : [ "", "", "" ],
					"patching_rect" : [ 205.099999999999994, 522.0, 159.500000000000028, 22.0 ],
					"saved_object_attributes" : 					{
						"parameter_enable" : 0,
						"parameter_mappable" : 0
					}
,
					"text" : "rtt.makenote~ @channel 3"
				}

			}
, 			{
				"box" : 				{
					"activelinecolor" : [ 0.792156862745098, 0.792156862745098, 0.031372549019608, 1.0 ],
					"id" : "obj-15",
					"maxclass" : "live.scope~",
					"numinlets" : 2,
					"numoutlets" : 1,
					"outlettype" : [ "bang" ],
					"patching_rect" : [ 556.100000000000023, 352.5, 84.0, 22.0 ],
					"range" : [ -0.1, 1.1 ]
				}

			}
, 			{
				"box" : 				{
					"activelinecolor" : [ 0.792156862745098, 0.792156862745098, 0.031372549019608, 1.0 ],
					"id" : "obj-6",
					"maxclass" : "live.scope~",
					"numinlets" : 2,
					"numoutlets" : 1,
					"outlettype" : [ "bang" ],
					"patching_rect" : [ 247.099999999999994, 352.5, 84.0, 22.0 ],
					"range" : [ -0.1, 1.1 ]
				}

			}
, 			{
				"box" : 				{
					"fontface" : 0,
					"fontname" : "Arial",
					"fontsize" : 12.0,
					"id" : "obj-30",
					"maxclass" : "number~",
					"mode" : 2,
					"numinlets" : 2,
					"numoutlets" : 2,
					"outlettype" : [ "signal", "float" ],
					"patching_rect" : [ 219.599999999999994, 434.0, 56.0, 22.0 ],
					"sig" : 0.0
				}

			}
, 			{
				"box" : 				{
					"activelinecolor" : [ 0.792156862745098, 0.792156862745098, 0.031372549019608, 1.0 ],
					"id" : "obj-29",
					"maxclass" : "live.scope~",
					"numinlets" : 2,
					"numoutlets" : 1,
					"outlettype" : [ "bang" ],
					"patching_rect" : [ 368.600000000000023, 401.0, 84.0, 22.0 ],
					"range" : [ -0.1, 1.1 ]
				}

			}
, 			{
				"box" : 				{
					"color" : [ 0.792156862745098, 0.792156862745098, 0.031372549019608, 1.0 ],
					"id" : "obj-27",
					"maxclass" : "newobj",
					"numinlets" : 3,
					"numoutlets" : 2,
					"outlettype" : [ "signal", "signal" ],
					"patching_rect" : [ 205.099999999999994, 401.0, 159.5, 22.0 ],
					"saved_object_attributes" : 					{
						"parameter_enable" : 0,
						"parameter_mappable" : 0
					}
,
					"text" : "rtt.rlogic~ @operator xor",
					"varname" : "rlogic_26881"
				}

			}
, 			{
				"box" : 				{
					"fontface" : 0,
					"fontname" : "Arial",
					"fontsize" : 12.0,
					"id" : "obj-26",
					"maxclass" : "number~",
					"mode" : 2,
					"numinlets" : 2,
					"numoutlets" : 2,
					"outlettype" : [ "signal", "float" ],
					"patching_rect" : [ 138.099999999999994, 522.0, 56.0, 22.0 ],
					"sig" : 0.0
				}

			}
, 			{
				"box" : 				{
					"id" : "obj-25",
					"maxclass" : "multislider",
					"numinlets" : 1,
					"numoutlets" : 2,
					"outlettype" : [ "", "" ],
					"parameter_enable" : 0,
					"patching_rect" : [ 460.100000000000023, 413.456521739130494, 160.0, 51.0 ],
					"setminmax" : [ 40.0, 52.0 ],
					"settype" : 0,
					"size" : 8,
					"slidercolor" : [ 0.792156862745098, 0.792156862745098, 0.031372549019608, 1.0 ]
				}

			}
, 			{
				"box" : 				{
					"color" : [ 0.792156862745098, 0.792156862745098, 0.031372549019608, 1.0 ],
					"id" : "obj-21",
					"maxclass" : "newobj",
					"numinlets" : 2,
					"numoutlets" : 2,
					"outlettype" : [ "signal", "" ],
					"patching_rect" : [ 205.099999999999994, 477.0, 274.0, 22.0 ],
					"saved_object_attributes" : 					{
						"parameter_enable" : 0,
						"parameter_mappable" : 0
					}
,
					"text" : "rtt.notes~"
				}

			}
, 			{
				"box" : 				{
					"color" : [ 0.792156862745098, 0.792156862745098, 0.031372549019608, 1.0 ],
					"fontsize" : 12.0,
					"id" : "obj-17",
					"maxclass" : "newobj",
					"numinlets" : 3,
					"numoutlets" : 4,
					"outlettype" : [ "signal", "signal", "signal", "" ],
					"patching_rect" : [ 442.100000000000023, 324.0, 278.0, 22.0 ],
					"saved_object_attributes" : 					{
						"parameter_enable" : 0,
						"parameter_mappable" : 0
					}
,
					"text" : "rtt.euclidean~ @steps 8 @events 5 @trigger count"
				}

			}
, 			{
				"box" : 				{
					"color" : [ 0.792156862745098, 0.792156862745098, 0.031372549019608, 1.0 ],
					"id" : "obj-14",
					"maxclass" : "newobj",
					"numinlets" : 3,
					"numoutlets" : 4,
					"outlettype" : [ "signal", "signal", "signal", "" ],
					"patching_rect" : [ 139.099999999999994, 324.0, 217.0, 22.0 ],
					"saved_object_attributes" : 					{
						"parameter_enable" : 0,
						"parameter_mappable" : 0
					}
,
					"text" : "rtt.euclidean~ @steps 16 @events 11"
				}

			}
, 			{
				"box" : 				{
					"fontface" : 0,
					"fontname" : "Arial",
					"fontsize" : 12.0,
					"id" : "obj-11",
					"maxclass" : "number~",
					"mode" : 2,
					"numinlets" : 2,
					"numoutlets" : 2,
					"outlettype" : [ "signal", "float" ],
					"patching_rect" : [ 401.5, 236.5, 56.0, 22.0 ],
					"sig" : 0.0
				}

			}
, 			{
				"box" : 				{
					"activelinecolor" : [ 0.792156862745098, 0.792156862745098, 0.031372549019608, 1.0 ],
					"id" : "obj-8",
					"maxclass" : "live.scope~",
					"numinlets" : 2,
					"numoutlets" : 1,
					"outlettype" : [ "bang" ],
					"patching_rect" : [ 311.5, 184.0, 146.0, 33.956521739130437 ],
					"range" : [ -0.1, 1.1 ]
				}

			}
, 			{
				"box" : 				{
					"id" : "obj-7",
					"maxclass" : "toggle",
					"numinlets" : 1,
					"numoutlets" : 1,
					"outlettype" : [ "int" ],
					"parameter_enable" : 0,
					"patching_rect" : [ 102.5, 112.0, 24.0, 24.0 ]
				}

			}
, 			{
				"box" : 				{
					"color" : [ 0.792156862745098, 0.792156862745098, 0.031372549019608, 1.0 ],
					"id" : "obj-5",
					"maxclass" : "newobj",
					"numinlets" : 1,
					"numoutlets" : 6,
					"outlettype" : [ "signal", "signal", "signal", "signal", "signal", "" ],
					"patching_rect" : [ 102.5, 184.0, 202.0, 22.0 ],
					"saved_object_attributes" : 					{
						"parameter_enable" : 0,
						"parameter_mappable" : 0
					}
,
					"text" : "rtt.loop~"
				}

			}
, 			{
				"box" : 				{
					"activelinecolor" : [ 0.792156862745098, 0.792156862745098, 0.031372549019608, 1.0 ],
					"id" : "obj-1",
					"maxclass" : "live.scope~",
					"numinlets" : 2,
					"numoutlets" : 1,
					"outlettype" : [ "bang" ],
					"patching_rect" : [ 311.5, 141.0, 146.0, 33.956521739130437 ],
					"range" : [ -0.1, 1.1 ]
				}

			}
, 			{
				"box" : 				{
					"color" : [ 0.792156862745098, 0.792156862745098, 0.031372549019608, 1.0 ],
					"id" : "obj-19",
					"maxclass" : "newobj",
					"numinlets" : 4,
					"numoutlets" : 2,
					"outlettype" : [ "signal", "signal" ],
					"patching_rect" : [ 102.5, 145.0, 57.0, 22.0 ],
					"saved_object_attributes" : 					{
						"parameter_enable" : 0,
						"parameter_mappable" : 0
					}
,
					"text" : "rtt.clock~"
				}

			}
, 			{
				"box" : 				{
					"hidden" : 1,
					"id" : "obj-32",
					"linecount" : 3,
					"maxclass" : "newobj",
					"numinlets" : 1,
					"numoutlets" : 1,
					"outlettype" : [ "" ],
					"patching_rect" : [ 465.100000000000023, 413.456521739130494, 75.0, 49.0 ],
					"text" : "loadmess 47 44 43 49 52 46 47 40"
				}

			}
, 			{
				"box" : 				{
					"background" : 1,
					"id" : "obj-46",
					"maxclass" : "live.line",
					"numinlets" : 1,
					"numoutlets" : 0,
					"patching_rect" : [ 548.0, 259.5, 50.5, 7.771739130434753 ]
				}

			}
, 			{
				"box" : 				{
					"background" : 1,
					"id" : "obj-45",
					"maxclass" : "live.line",
					"numinlets" : 1,
					"numoutlets" : 0,
					"patching_rect" : [ 527.5, 204.728260869565247, 71.0, 6.771739130434753 ]
				}

			}
, 			{
				"box" : 				{
					"background" : 1,
					"id" : "obj-44",
					"maxclass" : "live.line",
					"numinlets" : 1,
					"numoutlets" : 0,
					"patching_rect" : [ 527.5, 155.478260869565247, 67.0, 5.885869565217376 ]
				}

			}
, 			{
				"box" : 				{
					"background" : 1,
					"fontname" : "Lato",
					"fontsize" : 13.0,
					"id" : "obj-24",
					"linecount" : 2,
					"maxclass" : "comment",
					"numinlets" : 1,
					"numoutlets" : 0,
					"patching_rect" : [ 30.0, 67.0, 678.0, 38.0 ],
					"text" : "RTT uses a few different types of signal patterns: phasors, impulses, and counters. Typically, the sequencer starts with a clock, followed by clock modifiers, pattern generators, event modifiers, sequence generators, then outputs"
				}

			}
, 			{
				"box" : 				{
					"background" : 1,
					"fontname" : "Lato",
					"fontsize" : 18.0,
					"id" : "obj-28",
					"maxclass" : "comment",
					"numinlets" : 1,
					"numoutlets" : 0,
					"patching_rect" : [ 96.0, 38.0, 165.0, 28.0 ],
					"text" : "Signal Flow"
				}

			}
, 			{
				"box" : 				{
					"background" : 1,
					"fontface" : 1,
					"fontname" : "Lato",
					"fontsize" : 36.0,
					"id" : "obj-33",
					"maxclass" : "comment",
					"numinlets" : 1,
					"numoutlets" : 0,
					"patching_rect" : [ 30.0, 15.0, 66.0, 50.0 ],
					"text" : "rtt"
				}

			}
, 			{
				"box" : 				{
					"background" : 1,
					"bubbleside" : 3,
					"fontsize" : 12.0,
					"id" : "obj-31",
					"linecount" : 5,
					"maxclass" : "comment",
					"numinlets" : 1,
					"numoutlets" : 0,
					"patching_rect" : [ 117.0, 375.0, 85.0, 74.0 ],
					"text" : "event modifiers can usually take either triggers or counters"
				}

			}
, 			{
				"box" : 				{
					"background" : 1,
					"fontsize" : 14.0,
					"id" : "obj-22",
					"maxclass" : "comment",
					"numinlets" : 1,
					"numoutlets" : 0,
					"patching_rect" : [ 600.5, 249.0, 62.0, 22.0 ],
					"text" : "counter"
				}

			}
, 			{
				"box" : 				{
					"background" : 1,
					"fontsize" : 14.0,
					"id" : "obj-13",
					"linecount" : 2,
					"maxclass" : "comment",
					"numinlets" : 1,
					"numoutlets" : 0,
					"patching_rect" : [ 600.5, 184.0, 84.0, 38.0 ],
					"text" : "impulse (aka trigger)"
				}

			}
, 			{
				"box" : 				{
					"background" : 1,
					"fontsize" : 14.0,
					"id" : "obj-10",
					"maxclass" : "comment",
					"numinlets" : 1,
					"numoutlets" : 0,
					"patching_rect" : [ 596.5, 142.978260869565247, 62.0, 22.0 ],
					"text" : "phasor"
				}

			}
, 			{
				"box" : 				{
					"background" : 1,
					"bubblepoint" : 0.0,
					"bubbleside" : 2,
					"fontsize" : 12.0,
					"id" : "obj-18",
					"linecount" : 2,
					"maxclass" : "comment",
					"numinlets" : 1,
					"numoutlets" : 0,
					"patching_rect" : [ 442.100000000000023, 289.0, 118.0, 33.0 ],
					"text" : "...and impulses to their second inlet"
				}

			}
, 			{
				"box" : 				{
					"background" : 1,
					"bubblepoint" : 0.0,
					"bubbleside" : 2,
					"fontsize" : 12.0,
					"id" : "obj-16",
					"linecount" : 2,
					"maxclass" : "comment",
					"numinlets" : 1,
					"numoutlets" : 0,
					"patching_rect" : [ 156.100000000000023, 289.0, 145.0, 33.0 ],
					"text" : "pattern objects take counters to their first inlet"
				}

			}
, 			{
				"box" : 				{
					"background" : 1,
					"fontsize" : 12.0,
					"id" : "obj-12",
					"linecount" : 3,
					"maxclass" : "comment",
					"numinlets" : 1,
					"numoutlets" : 0,
					"patching_rect" : [ 457.5, 224.0, 148.0, 47.0 ],
					"text" : "counters are quantized signals that step between whole numbers"
				}

			}
, 			{
				"box" : 				{
					"background" : 1,
					"fontsize" : 12.0,
					"id" : "obj-9",
					"linecount" : 2,
					"maxclass" : "comment",
					"numinlets" : 1,
					"numoutlets" : 0,
					"patching_rect" : [ 457.5, 184.0, 103.0, 33.0 ],
					"text" : "a trigger signifies an event"
				}

			}
, 			{
				"box" : 				{
					"background" : 1,
					"fontsize" : 12.0,
					"id" : "obj-4",
					"linecount" : 3,
					"maxclass" : "comment",
					"numinlets" : 1,
					"numoutlets" : 0,
					"patching_rect" : [ 457.5, 134.478260869565219, 141.0, 47.0 ],
					"text" : "phasor signal is a continuous,  unquantized clock signal"
				}

			}
, 			{
				"box" : 				{
					"background" : 1,
					"id" : "obj-38",
					"maxclass" : "live.line",
					"numinlets" : 1,
					"numoutlets" : 0,
					"patching_rect" : [ 93.0, 112.0, 5.0, 468.5 ]
				}

			}
, 			{
				"box" : 				{
					"background" : 1,
					"fontface" : 1,
					"id" : "obj-37",
					"maxclass" : "comment",
					"numinlets" : 1,
					"numoutlets" : 0,
					"patching_rect" : [ 25.0, 517.5, 67.0, 20.0 ],
					"text" : "output",
					"textjustification" : 2
				}

			}
, 			{
				"box" : 				{
					"background" : 1,
					"fontface" : 1,
					"id" : "obj-36",
					"linecount" : 2,
					"maxclass" : "comment",
					"numinlets" : 1,
					"numoutlets" : 0,
					"patching_rect" : [ 25.0, 466.0, 67.0, 33.0 ],
					"text" : "sequence generator",
					"textjustification" : 2
				}

			}
, 			{
				"box" : 				{
					"background" : 1,
					"fontface" : 1,
					"id" : "obj-35",
					"linecount" : 2,
					"maxclass" : "comment",
					"numinlets" : 1,
					"numoutlets" : 0,
					"patching_rect" : [ 25.0, 390.0, 66.0, 33.0 ],
					"text" : "event modifier",
					"textjustification" : 2
				}

			}
, 			{
				"box" : 				{
					"background" : 1,
					"fontface" : 1,
					"id" : "obj-23",
					"linecount" : 2,
					"maxclass" : "comment",
					"numinlets" : 1,
					"numoutlets" : 0,
					"patching_rect" : [ 25.0, 318.5, 66.0, 33.0 ],
					"text" : "pattern generator",
					"textjustification" : 2
				}

			}
, 			{
				"box" : 				{
					"background" : 1,
					"fontface" : 1,
					"id" : "obj-20",
					"linecount" : 2,
					"maxclass" : "comment",
					"numinlets" : 1,
					"numoutlets" : 0,
					"patching_rect" : [ 31.0, 178.5, 54.0, 33.0 ],
					"text" : "clock modiier",
					"textjustification" : 2
				}

			}
, 			{
				"box" : 				{
					"background" : 1,
					"fontface" : 1,
					"id" : "obj-3",
					"maxclass" : "comment",
					"numinlets" : 1,
					"numoutlets" : 0,
					"patching_rect" : [ 31.0, 145.0, 54.0, 20.0 ],
					"text" : "clock",
					"textjustification" : 2
				}

			}
, 			{
				"box" : 				{
					"background" : 1,
					"bgcolor" : [ 1.0, 0.788235, 0.470588, 1.0 ],
					"fontname" : "Arial Bold",
					"hint" : "",
					"id" : "obj-41",
					"ignoreclick" : 1,
					"legacytextcolor" : 1,
					"maxclass" : "textbutton",
					"numinlets" : 1,
					"numoutlets" : 3,
					"outlettype" : [ "", "", "int" ],
					"parameter_enable" : 0,
					"patching_rect" : [ 231.5, 114.5, 20.0, 20.0 ],
					"rounded" : 60.0,
					"text" : "2",
					"textcolor" : [ 0.34902, 0.34902, 0.34902, 1.0 ]
				}

			}
, 			{
				"box" : 				{
					"background" : 1,
					"bubble" : 1,
					"fontname" : "Arial",
					"fontsize" : 13.0,
					"id" : "obj-43",
					"maxclass" : "comment",
					"numinlets" : 1,
					"numoutlets" : 0,
					"patching_rect" : [ 128.5, 112.0, 113.0, 25.0 ],
					"text" : "start the clock"
				}

			}
, 			{
				"box" : 				{
					"background" : 1,
					"bgcolor" : [ 1.0, 0.788235, 0.470588, 1.0 ],
					"fontname" : "Arial Bold",
					"hint" : "",
					"id" : "obj-2",
					"ignoreclick" : 1,
					"legacytextcolor" : 1,
					"maxclass" : "textbutton",
					"numinlets" : 1,
					"numoutlets" : 3,
					"outlettype" : [ "", "", "int" ],
					"parameter_enable" : 0,
					"patching_rect" : [ 441.0, 114.5, 20.0, 20.0 ],
					"rounded" : 60.0,
					"text" : "1",
					"textcolor" : [ 0.34902, 0.34902, 0.34902, 1.0 ]
				}

			}
, 			{
				"box" : 				{
					"background" : 1,
					"bubble" : 1,
					"fontname" : "Arial",
					"fontsize" : 13.0,
					"id" : "obj-39",
					"maxclass" : "comment",
					"numinlets" : 1,
					"numoutlets" : 0,
					"patching_rect" : [ 340.0, 112.0, 108.0, 25.0 ],
					"text" : "turn on audio"
				}

			}
, 			{
				"box" : 				{
					"background" : 1,
					"id" : "obj-86",
					"maxclass" : "comment",
					"numinlets" : 1,
					"numoutlets" : 0,
					"patching_rect" : [ 460.100000000000023, 391.456521739130494, 150.0, 20.0 ],
					"text" : "notes"
				}

			}
, 			{
				"box" : 				{
					"background" : 1,
					"bgmode" : 0,
					"border" : 0,
					"clickthrough" : 0,
					"enablehscroll" : 0,
					"enablevscroll" : 0,
					"id" : "obj-47",
					"lockeddragscroll" : 0,
					"lockedsize" : 0,
					"maxclass" : "bpatcher",
					"name" : "rtt.misc.philipmeyer.maxpat",
					"numinlets" : 0,
					"numoutlets" : 0,
					"offset" : [ 0.0, 0.0 ],
					"patching_rect" : [ 561.100000000000023, 537.5, 109.0, 21.0 ],
					"viewvisibility" : 1
				}

			}
 ],
		"lines" : [ 			{
				"patchline" : 				{
					"destination" : [ "obj-27", 0 ],
					"order" : 1,
					"source" : [ "obj-14", 1 ]
				}

			}
, 			{
				"patchline" : 				{
					"destination" : [ "obj-6", 0 ],
					"order" : 0,
					"source" : [ "obj-14", 1 ]
				}

			}
, 			{
				"patchline" : 				{
					"destination" : [ "obj-15", 0 ],
					"order" : 0,
					"source" : [ "obj-17", 1 ]
				}

			}
, 			{
				"patchline" : 				{
					"destination" : [ "obj-27", 1 ],
					"order" : 1,
					"source" : [ "obj-17", 1 ]
				}

			}
, 			{
				"patchline" : 				{
					"destination" : [ "obj-1", 0 ],
					"order" : 0,
					"source" : [ "obj-19", 0 ]
				}

			}
, 			{
				"patchline" : 				{
					"destination" : [ "obj-5", 0 ],
					"order" : 1,
					"source" : [ "obj-19", 0 ]
				}

			}
, 			{
				"patchline" : 				{
					"destination" : [ "obj-26", 0 ],
					"order" : 1,
					"source" : [ "obj-21", 0 ]
				}

			}
, 			{
				"patchline" : 				{
					"destination" : [ "obj-34", 0 ],
					"order" : 0,
					"source" : [ "obj-21", 0 ]
				}

			}
, 			{
				"patchline" : 				{
					"destination" : [ "obj-21", 1 ],
					"source" : [ "obj-25", 0 ]
				}

			}
, 			{
				"patchline" : 				{
					"destination" : [ "obj-21", 0 ],
					"order" : 1,
					"source" : [ "obj-27", 0 ]
				}

			}
, 			{
				"patchline" : 				{
					"destination" : [ "obj-29", 0 ],
					"order" : 0,
					"source" : [ "obj-27", 1 ]
				}

			}
, 			{
				"patchline" : 				{
					"destination" : [ "obj-30", 0 ],
					"order" : 0,
					"source" : [ "obj-27", 0 ]
				}

			}
, 			{
				"patchline" : 				{
					"destination" : [ "obj-34", 4 ],
					"order" : 1,
					"source" : [ "obj-27", 1 ]
				}

			}
, 			{
				"patchline" : 				{
					"destination" : [ "obj-25", 0 ],
					"hidden" : 1,
					"source" : [ "obj-32", 0 ]
				}

			}
, 			{
				"patchline" : 				{
					"destination" : [ "obj-42", 0 ],
					"source" : [ "obj-34", 0 ]
				}

			}
, 			{
				"patchline" : 				{
					"destination" : [ "obj-11", 0 ],
					"midpoints" : [ 148.599999999999994, 222.75, 411.0, 222.75 ],
					"order" : 0,
					"source" : [ "obj-5", 1 ]
				}

			}
, 			{
				"patchline" : 				{
					"destination" : [ "obj-14", 0 ],
					"order" : 1,
					"source" : [ "obj-5", 1 ]
				}

			}
, 			{
				"patchline" : 				{
					"destination" : [ "obj-17", 1 ],
					"midpoints" : [ 185.199999999999989, 272.110822200775146, 581.100000000000023, 272.110822200775146 ],
					"order" : 0,
					"source" : [ "obj-5", 2 ]
				}

			}
, 			{
				"patchline" : 				{
					"destination" : [ "obj-27", 2 ],
					"midpoints" : [ 185.199999999999989, 272.360822200775146, 355.100000000000023, 272.360822200775146 ],
					"order" : 1,
					"source" : [ "obj-5", 2 ]
				}

			}
, 			{
				"patchline" : 				{
					"destination" : [ "obj-8", 0 ],
					"order" : 2,
					"source" : [ "obj-5", 2 ]
				}

			}
, 			{
				"patchline" : 				{
					"destination" : [ "obj-19", 0 ],
					"source" : [ "obj-7", 0 ]
				}

			}
 ],
		"dependency_cache" : [ 			{
				"name" : "rtt.clock~.mxo",
				"type" : "iLaX"
			}
, 			{
				"name" : "rtt.euclidean~.mxo",
				"type" : "iLaX"
			}
, 			{
				"name" : "rtt.loop~.mxo",
				"type" : "iLaX"
			}
, 			{
				"name" : "rtt.makenote~.mxo",
				"type" : "iLaX"
			}
, 			{
				"name" : "rtt.misc.philipmeyer.maxpat",
				"bootpath" : "~/Documents/Max 8/Packages/seq/misc",
				"patcherrelativepath" : "../misc",
				"type" : "JSON",
				"implicit" : 1
			}
, 			{
				"name" : "rtt.notes~.mxo",
				"type" : "iLaX"
			}
, 			{
				"name" : "rtt.rlogic~.mxo",
				"type" : "iLaX"
			}
 ],
		"autosave" : 0
	}

}
